<?xml version="1.0" encoding="UTF-8"?>
<svg width="800" height="800" viewBox="0 0 800 800" xmlns="http://www.w3.org/2000/svg">
<!-- Created by Ian Parberry -->
<style>rect{fill:none;stroke-width:3}rect.b{x:388;y:388;stroke:blue;}rect.w{x:388;y:388;stroke:yellow;}</style>
<rect width="800" height="800" style="fill:forestgreen"/>
<g transform="translate(112.0 12.0)rotate(-12.0 388 388)"><rect width="24" height="24" class="w"/></g>
<g transform="translate(106.0 46.2)rotate(8.0 388 388)"><rect width="24" height="24" class="b"/></g>
<g transform="translate(88.6 76.3)rotate(28.0 388 388)"><rect width="24" height="24" class="w"/></g>
<g transform="translate(62.0 98.6)rotate(48.0 388 388)"><rect width="24" height="24" class="b"/></g>
<g transform="translate(29.4 110.5)rotate(68.0 388 388)"><rect width="24" height="24" class="w"/></g>
<g transform="translate(-5.4 110.5)rotate(88.0 388 388)"><rect width="24" height="24" class="b"/></g>
<g transform="translate(-38.0 98.6)rotate(108.0 388 388)"><rect width="24" height="24" class="w"/></g>
<g transform="translate(-64.6 76.3)rotate(128.0 388 388)"><rect width="24" height="24" class="b"/></g>
<g transform="translate(-82.0 46.2)rotate(148.0 388 388)"><rect width="24" height="24" class="w"/></g>
<g transform="translate(-88.0 12.0)rotate(168.0 388 388)"><rect width="24" height="24" class="b"/></g>
<g transform="translate(-82.0 -22.2)rotate(188.0 388 388)"><rect width="24" height="24" class="w"/></g>
<g transform="translate(-64.6 -52.3)rotate(208.0 388 388)"><rect width="24" height="24" class="b"/></g>
<g transform="translate(-38.0 -74.6)rotate(228.0 388 388)"><rect width="24" height="24" class="w"/></g>
<g transform="translate(-5.4 -86.5)rotate(248.0 388 388)"><rect width="24" height="24" class="b"/></g>
<g transform="translate(29.4 -86.5)rotate(268.0 388 388)"><rect width="24" height="24" class="w"/></g>
<g transform="translate(62.0 -74.6)rotate(288.0 388 388)"><rect width="24" height="24" class="b"/></g>
<g transform="translate(88.6 -52.3)rotate(308.0 388 388)"><rect width="24" height="24" class="w"/></g>
<g transform="translate(106.0 -22.2)rotate(328.0 388 388)"><rect width="24" height="24" class="b"/></g>
<g transform="translate(184.0 12.0)rotate(12.0 388 388)"><rect width="24" height="24" class="w"/></g>
<g transform="translate(180.2 47.8)rotate(24.0 388 388)"><rect width="24" height="24" class="b"/></g>
<g transform="translate(169.1 82.0)rotate(36.0 388 388)"><rect width="24" height="24" class="w"/></g>
<g transform="translate(151.2 113.1)rotate(48.0 388 388)"><rect width="24" height="24" class="b"/></g>
<g transform="translate(127.1 139.8)rotate(60.0 388 388)"><rect width="24" height="24" class="w"/></g>
<g transform="translate(98.0 161.0)rotate(72.0 388 388)"><rect width="24" height="24" class="b"/></g>
<g transform="translate(65.2 175.6)rotate(84.0 388 388)"><rect width="24" height="24" class="w"/></g>
<g transform="translate(30.0 183.1)rotate(96.0 388 388)"><rect width="24" height="24" class="b"/></g>
<g transform="translate(-6.0 183.1)rotate(108.0 388 388)"><rect width="24" height="24" class="w"/></g>
<g transform="translate(-41.2 175.6)rotate(120.0 388 388)"><rect width="24" height="24" class="b"/></g>
<g transform="translate(-74.0 161.0)rotate(132.0 388 388)"><rect width="24" height="24" class="w"/></g>
<g transform="translate(-103.1 139.8)rotate(144.0 388 388)"><rect width="24" height="24" class="b"/></g>
<g transform="translate(-127.2 113.1)rotate(156.0 388 388)"><rect width="24" height="24" class="w"/></g>
<g transform="translate(-145.1 82.0)rotate(168.0 388 388)"><rect width="24" height="24" class="b"/></g>
<g transform="translate(-156.2 47.8)rotate(180.0 388 388)"><rect width="24" height="24" class="w"/></g>
<g transform="translate(-160.0 12.0)rotate(192.0 388 388)"><rect width="24" height="24" class="b"/></g>
<g transform="translate(-156.2 -23.8)rotate(204.0 388 388)"><rect width="24" height="24" class="w"/></g>
<g transform="translate(-145.1 -58.0)rotate(216.0 388 388)"><rect width="24" height="24" class="b"/></g>
<g transform="translate(-127.2 -89.1)rotate(228.0 388 388)"><rect width="24" height="24" class="w"/></g>
<g transform="translate(-103.1 -115.8)rotate(240.0 388 388)"><rect width="24" height="24" class="b"/></g>
<g transform="translate(-74.0 -137.0)rotate(252.0 388 388)"><rect width="24" height="24" class="w"/></g>
<g transform="translate(-41.2 -151.6)rotate(264.0 388 388)"><rect width="24" height="24" class="b"/></g>
<g transform="translate(-6.0 -159.1)rotate(276.0 388 388)"><rect width="24" height="24" class="w"/></g>
<g transform="translate(30.0 -159.1)rotate(288.0 388 388)"><rect width="24" height="24" class="b"/></g>
<g transform="translate(65.2 -151.6)rotate(300.0 388 388)"><rect width="24" height="24" class="w"/></g>
<g transform="translate(98.0 -137.0)rotate(312.0 388 388)"><rect width="24" height="24" class="b"/></g>
<g transform="translate(127.1 -115.8)rotate(324.0 388 388)"><rect width="24" height="24" class="w"/></g>
<g transform="translate(151.2 -89.1)rotate(336.0 388 388)"><rect width="24" height="24" class="b"/></g>
<g transform="translate(169.1 -58.0)rotate(348.0 388 388)"><rect width="24" height="24" class="w"/></g>
<g transform="translate(180.2 -23.8)rotate(360.0 388 388)"><rect width="24" height="24" class="b"/></g>
<g transform="translate(256.0 12.0)rotate(-12.0 388 388)"><rect width="24" height="24" class="w"/></g>
<g transform="translate(253.3 48.4)rotate(-3.4 388 388)"><rect width="24" height="24" class="b"/></g>
<g transform="translate(245.2 83.9)rotate(5.1 388 388)"><rect width="24" height="24" class="w"/></g>
<g transform="translate(231.8 117.9)rotate(13.7 388 388)"><rect width="24" height="24" class="b"/></g>
<g transform="translate(213.6 149.5)rotate(22.3 388 388)"><rect width="24" height="24" class="w"/></g>
<g transform="translate(190.9 178.0)rotate(30.9 388 388)"><rect width="24" height="24" class="b"/></g>
<g transform="translate(164.1 202.8)rotate(39.4 388 388)"><rect width="24" height="24" class="w"/></g>
<g transform="translate(134.0 223.3)rotate(48.0 388 388)"><rect width="24" height="24" class="b"/></g>
<g transform="translate(101.1 239.1)rotate(56.6 388 388)"><rect width="24" height="24" class="w"/></g>
<g transform="translate(66.3 249.9)rotate(65.1 388 388)"><rect width="24" height="24" class="b"/></g>
<g transform="translate(30.2 255.3)rotate(73.7 388 388)"><rect width="24" height="24" class="w"/></g>
<g transform="translate(-6.2 255.3)rotate(82.3 388 388)"><rect width="24" height="24" class="b"/></g>
<g transform="translate(-42.3 249.9)rotate(90.9 388 388)"><rect width="24" height="24" class="w"/></g>
<g transform="translate(-77.1 239.1)rotate(99.4 388 388)"><rect width="24" height="24" class="b"/></g>
<g transform="translate(-110.0 223.3)rotate(108.0 388 388)"><rect width="24" height="24" class="w"/></g>
<g transform="translate(-140.1 202.8)rotate(116.6 388 388)"><rect width="24" height="24" class="b"/></g>
<g transform="translate(-166.9 178.0)rotate(125.1 388 388)"><rect width="24" height="24" class="w"/></g>
<g transform="translate(-189.6 149.5)rotate(133.7 388 388)"><rect width="24" height="24" class="b"/></g>
<g transform="translate(-207.8 117.9)rotate(142.3 388 388)"><rect width="24" height="24" class="w"/></g>
<g transform="translate(-221.2 83.9)rotate(150.9 388 388)"><rect width="24" height="24" class="b"/></g>
<g transform="translate(-229.3 48.4)rotate(159.4 388 388)"><rect width="24" height="24" class="w"/></g>
<g transform="translate(-232.0 12.0)rotate(168.0 388 388)"><rect width="24" height="24" class="b"/></g>
<g transform="translate(-229.3 -24.4)rotate(176.6 388 388)"><rect width="24" height="24" class="w"/></g>
<g transform="translate(-221.2 -59.9)rotate(185.1 388 388)"><rect width="24" height="24" class="b"/></g>
<g transform="translate(-207.8 -93.9)rotate(193.7 388 388)"><rect width="24" height="24" class="w"/></g>
<g transform="translate(-189.6 -125.4)rotate(202.3 388 388)"><rect width="24" height="24" class="b"/></g>
<g transform="translate(-166.9 -154.0)rotate(210.9 388 388)"><rect width="24" height="24" class="w"/></g>
<g transform="translate(-140.1 -178.8)rotate(219.4 388 388)"><rect width="24" height="24" class="b"/></g>
<g transform="translate(-110.0 -199.3)rotate(228.0 388 388)"><rect width="24" height="24" class="w"/></g>
<g transform="translate(-77.1 -215.1)rotate(236.6 388 388)"><rect width="24" height="24" class="b"/></g>
<g transform="translate(-42.3 -225.9)rotate(245.1 388 388)"><rect width="24" height="24" class="w"/></g>
<g transform="translate(-6.2 -231.3)rotate(253.7 388 388)"><rect width="24" height="24" class="b"/></g>
<g transform="translate(30.2 -231.3)rotate(262.3 388 388)"><rect width="24" height="24" class="w"/></g>
<g transform="translate(66.3 -225.9)rotate(270.9 388 388)"><rect width="24" height="24" class="b"/></g>
<g transform="translate(101.1 -215.1)rotate(279.4 388 388)"><rect width="24" height="24" class="w"/></g>
<g transform="translate(134.0 -199.3)rotate(288.0 388 388)"><rect width="24" height="24" class="b"/></g>
<g transform="translate(164.1 -178.8)rotate(296.6 388 388)"><rect width="24" height="24" class="w"/></g>
<g transform="translate(190.9 -154.0)rotate(305.1 388 388)"><rect width="24" height="24" class="b"/></g>
<g transform="translate(213.6 -125.5)rotate(313.7 388 388)"><rect width="24" height="24" class="w"/></g>
<g transform="translate(231.8 -93.9)rotate(322.3 388 388)"><rect width="24" height="24" class="b"/></g>
<g transform="translate(245.2 -59.9)rotate(330.9 388 388)"><rect width="24" height="24" class="w"/></g>
<g transform="translate(253.3 -24.4)rotate(339.4 388 388)"><rect width="24" height="24" class="b"/></g>
<g transform="translate(328.0 12.0)rotate(12.0 388 388)"><rect width="24" height="24" class="w"/></g>
<g transform="translate(326.0 47.4)rotate(18.4 388 388)"><rect width="24" height="24" class="b"/></g>
<g transform="translate(320.1 82.3)rotate(24.9 388 388)"><rect width="24" height="24" class="w"/></g>
<g transform="translate(310.3 116.4)rotate(31.3 388 388)"><rect width="24" height="24" class="b"/></g>
<g transform="translate(296.7 149.1)rotate(37.7 388 388)"><rect width="24" height="24" class="w"/></g>
<g transform="translate(279.6 180.1)rotate(44.1 388 388)"><rect width="24" height="24" class="b"/></g>
<g transform="translate(259.1 209.0)rotate(50.6 388 388)"><rect width="24" height="24" class="w"/></g>
<g transform="translate(235.4 235.4)rotate(57.0 388 388)"><rect width="24" height="24" class="b"/></g>
<g transform="translate(209.0 259.1)rotate(63.4 388 388)"><rect width="24" height="24" class="w"/></g>
<g transform="translate(180.1 279.6)rotate(69.9 388 388)"><rect width="24" height="24" class="b"/></g>
<g transform="translate(149.1 296.7)rotate(76.3 388 388)"><rect width="24" height="24" class="w"/></g>
<g transform="translate(116.4 310.3)rotate(82.7 388 388)"><rect width="24" height="24" class="b"/></g>
<g transform="translate(82.3 320.1)rotate(89.1 388 388)"><rect width="24" height="24" class="w"/></g>
<g transform="translate(47.4 326.0)rotate(95.6 388 388)"><rect width="24" height="24" class="b"/></g>
<g transform="translate(12.0 328.0)rotate(102.0 388 388)"><rect width="24" height="24" class="w"/></g>
<g transform="translate(-23.4 326.0)rotate(108.4 388 388)"><rect width="24" height="24" class="b"/></g>
<g transform="translate(-58.3 320.1)rotate(114.9 388 388)"><rect width="24" height="24" class="w"/></g>
<g transform="translate(-92.4 310.3)rotate(121.3 388 388)"><rect width="24" height="24" class="b"/></g>
<g transform="translate(-125.1 296.7)rotate(127.7 388 388)"><rect width="24" height="24" class="w"/></g>
<g transform="translate(-156.1 279.6)rotate(134.1 388 388)"><rect width="24" height="24" class="b"/></g>
<g transform="translate(-185.0 259.1)rotate(140.6 388 388)"><rect width="24" height="24" class="w"/></g>
<g transform="translate(-211.4 235.4)rotate(147.0 388 388)"><rect width="24" height="24" class="b"/></g>
<g transform="translate(-235.1 209.0)rotate(153.4 388 388)"><rect width="24" height="24" class="w"/></g>
<g transform="translate(-255.6 180.1)rotate(159.9 388 388)"><rect width="24" height="24" class="b"/></g>
<g transform="translate(-272.7 149.1)rotate(166.3 388 388)"><rect width="24" height="24" class="w"/></g>
<g transform="translate(-286.3 116.4)rotate(172.7 388 388)"><rect width="24" height="24" class="b"/></g>
<g transform="translate(-296.1 82.3)rotate(179.1 388 388)"><rect width="24" height="24" class="w"/></g>
<g transform="translate(-302.0 47.4)rotate(185.6 388 388)"><rect width="24" height="24" class="b"/></g>
<g transform="translate(-304.0 12.0)rotate(192.0 388 388)"><rect width="24" height="24" class="w"/></g>
<g transform="translate(-302.0 -23.4)rotate(198.4 388 388)"><rect width="24" height="24" class="b"/></g>
<g transform="translate(-296.1 -58.3)rotate(204.9 388 388)"><rect width="24" height="24" class="w"/></g>
<g transform="translate(-286.3 -92.4)rotate(211.3 388 388)"><rect width="24" height="24" class="b"/></g>
<g transform="translate(-272.7 -125.1)rotate(217.7 388 388)"><rect width="24" height="24" class="w"/></g>
<g transform="translate(-255.6 -156.1)rotate(224.1 388 388)"><rect width="24" height="24" class="b"/></g>
<g transform="translate(-235.1 -185.0)rotate(230.6 388 388)"><rect width="24" height="24" class="w"/></g>
<g transform="translate(-211.4 -211.4)rotate(237.0 388 388)"><rect width="24" height="24" class="b"/></g>
<g transform="translate(-185.0 -235.1)rotate(243.4 388 388)"><rect width="24" height="24" class="w"/></g>
<g transform="translate(-156.1 -255.6)rotate(249.9 388 388)"><rect width="24" height="24" class="b"/></g>
<g transform="translate(-125.1 -272.7)rotate(256.3 388 388)"><rect width="24" height="24" class="w"/></g>
<g transform="translate(-92.4 -286.3)rotate(262.7 388 388)"><rect width="24" height="24" class="b"/></g>
<g transform="translate(-58.3 -296.1)rotate(269.1 388 388)"><rect width="24" height="24" class="w"/></g>
<g transform="translate(-23.4 -302.0)rotate(275.6 388 388)"><rect width="24" height="24" class="b"/></g>
<g transform="translate(12.0 -304.0)rotate(282.0 388 388)"><rect width="24" height="24" class="w"/></g>
<g transform="translate(47.4 -302.0)rotate(288.4 388 388)"><rect width="24" height="24" class="b"/></g>
<g transform="translate(82.3 -296.1)rotate(294.9 388 388)"><rect width="24" height="24" class="w"/></g>
<g transform="translate(116.4 -286.3)rotate(301.3 388 388)"><rect width="24" height="24" class="b"/></g>
<g transform="translate(149.1 -272.7)rotate(307.7 388 388)"><rect width="24" height="24" class="w"/></g>
<g transform="translate(180.1 -255.6)rotate(314.1 388 388)"><rect width="24" height="24" class="b"/></g>
<g transform="translate(209.0 -235.1)rotate(320.6 388 388)"><rect width="24" height="24" class="w"/></g>
<g transform="translate(235.4 -211.4)rotate(327.0 388 388)"><rect width="24" height="24" class="b"/></g>
<g transform="translate(259.1 -185.0)rotate(333.4 388 388)"><rect width="24" height="24" class="w"/></g>
<g transform="translate(279.6 -156.1)rotate(339.9 388 388)"><rect width="24" height="24" class="b"/></g>
<g transform="translate(296.7 -125.1)rotate(346.3 388 388)"><rect width="24" height="24" class="w"/></g>
<g transform="translate(310.3 -92.4)rotate(352.7 388 388)"><rect width="24" height="24" class="b"/></g>
<g transform="translate(320.1 -58.3)rotate(359.1 388 388)"><rect width="24" height="24" class="w"/></g>
<g transform="translate(326.0 -23.4)rotate(365.6 388 388)"><rect width="24" height="24" class="b"/></g>
</svg>
