<?xml version="1.0" encoding="UTF-8"?>
<svg width="800" height="800" viewBox="0 0 800 800" xmlns="http://www.w3.org/2000/svg">
<!-- Created by Ian Parberry -->
<style>rect{fill:none;stroke-width:3}rect.b{x:388;y:388;stroke:blue;}rect.w{x:388;y:388;stroke:yellow;}</style>
<rect width="800" height="800" style="fill:forestgreen"/>
<g transform="translate(112.0 12.0)rotate(-12.0 388 388)"><rect width="24" height="24" class="w"/></g>
<g transform="translate(106.0 46.2)rotate(8.0 388 388)"><rect width="24" height="24" class="b"/></g>
<g transform="translate(88.6 76.3)rotate(28.0 388 388)"><rect width="24" height="24" class="w"/></g>
<g transform="translate(62.0 98.6)rotate(48.0 388 388)"><rect width="24" height="24" class="b"/></g>
<g transform="translate(29.4 110.5)rotate(68.0 388 388)"><rect width="24" height="24" class="w"/></g>
<g transform="translate(-5.4 110.5)rotate(88.0 388 388)"><rect width="24" height="24" class="b"/></g>
<g transform="translate(-38.0 98.6)rotate(108.0 388 388)"><rect width="24" height="24" class="w"/></g>
<g transform="translate(-64.6 76.3)rotate(128.0 388 388)"><rect width="24" height="24" class="b"/></g>
<g transform="translate(-82.0 46.2)rotate(148.0 388 388)"><rect width="24" height="24" class="w"/></g>
<g transform="translate(-88.0 12.0)rotate(168.0 388 388)"><rect width="24" height="24" class="b"/></g>
<g transform="translate(-82.0 -22.2)rotate(188.0 388 388)"><rect width="24" height="24" class="w"/></g>
<g transform="translate(-64.6 -52.3)rotate(208.0 388 388)"><rect width="24" height="24" class="b"/></g>
<g transform="translate(-38.0 -74.6)rotate(228.0 388 388)"><rect width="24" height="24" class="w"/></g>
<g transform="translate(-5.4 -86.5)rotate(248.0 388 388)"><rect width="24" height="24" class="b"/></g>
<g transform="translate(29.4 -86.5)rotate(268.0 388 388)"><rect width="24" height="24" class="w"/></g>
<g transform="translate(62.0 -74.6)rotate(288.0 388 388)"><rect width="24" height="24" class="b"/></g>
<g transform="translate(88.6 -52.3)rotate(308.0 388 388)"><rect width="24" height="24" class="w"/></g>
<g transform="translate(106.0 -22.2)rotate(328.0 388 388)"><rect width="24" height="24" class="b"/></g>
<g transform="translate(184.0 12.0)rotate(12.0 388 388)"><rect width="24" height="24" class="w"/></g>
<g transform="translate(180.7 45.6)rotate(23.3 388 388)"><rect width="24" height="24" class="b"/></g>
<g transform="translate(170.9 77.8)rotate(34.5 388 388)"><rect width="24" height="24" class="w"/></g>
<g transform="translate(155.0 107.6)rotate(45.8 388 388)"><rect width="24" height="24" class="b"/></g>
<g transform="translate(133.6 133.6)rotate(57.0 388 388)"><rect width="24" height="24" class="w"/></g>
<g transform="translate(107.6 155.0)rotate(68.3 388 388)"><rect width="24" height="24" class="b"/></g>
<g transform="translate(77.8 170.9)rotate(79.5 388 388)"><rect width="24" height="24" class="w"/></g>
<g transform="translate(45.6 180.7)rotate(90.8 388 388)"><rect width="24" height="24" class="b"/></g>
<g transform="translate(12.0 184.0)rotate(102.0 388 388)"><rect width="24" height="24" class="w"/></g>
<g transform="translate(-21.6 180.7)rotate(113.2 388 388)"><rect width="24" height="24" class="b"/></g>
<g transform="translate(-53.8 170.9)rotate(124.5 388 388)"><rect width="24" height="24" class="w"/></g>
<g transform="translate(-83.6 155.0)rotate(135.7 388 388)"><rect width="24" height="24" class="b"/></g>
<g transform="translate(-109.6 133.6)rotate(147.0 388 388)"><rect width="24" height="24" class="w"/></g>
<g transform="translate(-131.0 107.6)rotate(158.3 388 388)"><rect width="24" height="24" class="b"/></g>
<g transform="translate(-146.9 77.8)rotate(169.5 388 388)"><rect width="24" height="24" class="w"/></g>
<g transform="translate(-156.7 45.6)rotate(180.8 388 388)"><rect width="24" height="24" class="b"/></g>
<g transform="translate(-160.0 12.0)rotate(192.0 388 388)"><rect width="24" height="24" class="w"/></g>
<g transform="translate(-156.7 -21.6)rotate(203.3 388 388)"><rect width="24" height="24" class="b"/></g>
<g transform="translate(-146.9 -53.8)rotate(214.5 388 388)"><rect width="24" height="24" class="w"/></g>
<g transform="translate(-131.0 -83.6)rotate(225.8 388 388)"><rect width="24" height="24" class="b"/></g>
<g transform="translate(-109.6 -109.6)rotate(237.0 388 388)"><rect width="24" height="24" class="w"/></g>
<g transform="translate(-83.6 -131.0)rotate(248.3 388 388)"><rect width="24" height="24" class="b"/></g>
<g transform="translate(-53.8 -146.9)rotate(259.5 388 388)"><rect width="24" height="24" class="w"/></g>
<g transform="translate(-21.6 -156.7)rotate(270.8 388 388)"><rect width="24" height="24" class="b"/></g>
<g transform="translate(12.0 -160.0)rotate(282.0 388 388)"><rect width="24" height="24" class="w"/></g>
<g transform="translate(45.6 -156.7)rotate(293.3 388 388)"><rect width="24" height="24" class="b"/></g>
<g transform="translate(77.8 -146.9)rotate(304.5 388 388)"><rect width="24" height="24" class="w"/></g>
<g transform="translate(107.6 -131.0)rotate(315.8 388 388)"><rect width="24" height="24" class="b"/></g>
<g transform="translate(133.6 -109.6)rotate(327.0 388 388)"><rect width="24" height="24" class="w"/></g>
<g transform="translate(155.0 -83.6)rotate(338.3 388 388)"><rect width="24" height="24" class="b"/></g>
<g transform="translate(170.9 -53.8)rotate(349.5 388 388)"><rect width="24" height="24" class="w"/></g>
<g transform="translate(180.7 -21.6)rotate(360.8 388 388)"><rect width="24" height="24" class="b"/></g>
<g transform="translate(256.0 12.0)rotate(-12.0 388 388)"><rect width="24" height="24" class="w"/></g>
<g transform="translate(253.5 46.7)rotate(-3.8 388 388)"><rect width="24" height="24" class="b"/></g>
<g transform="translate(246.1 80.7)rotate(4.4 388 388)"><rect width="24" height="24" class="w"/></g>
<g transform="translate(234.0 113.4)rotate(12.5 388 388)"><rect width="24" height="24" class="b"/></g>
<g transform="translate(217.3 143.9)rotate(20.7 388 388)"><rect width="24" height="24" class="w"/></g>
<g transform="translate(196.4 171.8)rotate(28.9 388 388)"><rect width="24" height="24" class="b"/></g>
<g transform="translate(171.8 196.4)rotate(37.1 388 388)"><rect width="24" height="24" class="w"/></g>
<g transform="translate(143.9 217.3)rotate(45.3 388 388)"><rect width="24" height="24" class="b"/></g>
<g transform="translate(113.4 234.0)rotate(53.5 388 388)"><rect width="24" height="24" class="w"/></g>
<g transform="translate(80.7 246.1)rotate(61.6 388 388)"><rect width="24" height="24" class="b"/></g>
<g transform="translate(46.7 253.5)rotate(69.8 388 388)"><rect width="24" height="24" class="w"/></g>
<g transform="translate(12.0 256.0)rotate(78.0 388 388)"><rect width="24" height="24" class="b"/></g>
<g transform="translate(-22.7 253.5)rotate(86.2 388 388)"><rect width="24" height="24" class="w"/></g>
<g transform="translate(-56.7 246.1)rotate(94.4 388 388)"><rect width="24" height="24" class="b"/></g>
<g transform="translate(-89.4 234.0)rotate(102.5 388 388)"><rect width="24" height="24" class="w"/></g>
<g transform="translate(-119.9 217.3)rotate(110.7 388 388)"><rect width="24" height="24" class="b"/></g>
<g transform="translate(-147.8 196.4)rotate(118.9 388 388)"><rect width="24" height="24" class="w"/></g>
<g transform="translate(-172.4 171.8)rotate(127.1 388 388)"><rect width="24" height="24" class="b"/></g>
<g transform="translate(-193.3 143.9)rotate(135.3 388 388)"><rect width="24" height="24" class="w"/></g>
<g transform="translate(-210.0 113.4)rotate(143.5 388 388)"><rect width="24" height="24" class="b"/></g>
<g transform="translate(-222.1 80.7)rotate(151.6 388 388)"><rect width="24" height="24" class="w"/></g>
<g transform="translate(-229.5 46.7)rotate(159.8 388 388)"><rect width="24" height="24" class="b"/></g>
<g transform="translate(-232.0 12.0)rotate(168.0 388 388)"><rect width="24" height="24" class="w"/></g>
<g transform="translate(-229.5 -22.7)rotate(176.2 388 388)"><rect width="24" height="24" class="b"/></g>
<g transform="translate(-222.1 -56.7)rotate(184.4 388 388)"><rect width="24" height="24" class="w"/></g>
<g transform="translate(-210.0 -89.4)rotate(192.5 388 388)"><rect width="24" height="24" class="b"/></g>
<g transform="translate(-193.3 -119.9)rotate(200.7 388 388)"><rect width="24" height="24" class="w"/></g>
<g transform="translate(-172.4 -147.8)rotate(208.9 388 388)"><rect width="24" height="24" class="b"/></g>
<g transform="translate(-147.8 -172.4)rotate(217.1 388 388)"><rect width="24" height="24" class="w"/></g>
<g transform="translate(-119.9 -193.3)rotate(225.3 388 388)"><rect width="24" height="24" class="b"/></g>
<g transform="translate(-89.4 -210.0)rotate(233.5 388 388)"><rect width="24" height="24" class="w"/></g>
<g transform="translate(-56.7 -222.1)rotate(241.6 388 388)"><rect width="24" height="24" class="b"/></g>
<g transform="translate(-22.7 -229.5)rotate(249.8 388 388)"><rect width="24" height="24" class="w"/></g>
<g transform="translate(12.0 -232.0)rotate(258.0 388 388)"><rect width="24" height="24" class="b"/></g>
<g transform="translate(46.7 -229.5)rotate(266.2 388 388)"><rect width="24" height="24" class="w"/></g>
<g transform="translate(80.7 -222.1)rotate(274.4 388 388)"><rect width="24" height="24" class="b"/></g>
<g transform="translate(113.4 -210.0)rotate(282.5 388 388)"><rect width="24" height="24" class="w"/></g>
<g transform="translate(143.9 -193.3)rotate(290.7 388 388)"><rect width="24" height="24" class="b"/></g>
<g transform="translate(171.8 -172.4)rotate(298.9 388 388)"><rect width="24" height="24" class="w"/></g>
<g transform="translate(196.4 -147.8)rotate(307.1 388 388)"><rect width="24" height="24" class="b"/></g>
<g transform="translate(217.3 -119.9)rotate(315.3 388 388)"><rect width="24" height="24" class="w"/></g>
<g transform="translate(234.0 -89.4)rotate(323.5 388 388)"><rect width="24" height="24" class="b"/></g>
<g transform="translate(246.1 -56.7)rotate(331.6 388 388)"><rect width="24" height="24" class="w"/></g>
<g transform="translate(253.5 -22.7)rotate(339.8 388 388)"><rect width="24" height="24" class="b"/></g>
<g transform="translate(328.0 12.0)rotate(12.0 388 388)"><rect width="24" height="24" class="w"/></g>
<g transform="translate(326.0 47.4)rotate(18.4 388 388)"><rect width="24" height="24" class="b"/></g>
<g transform="translate(320.1 82.3)rotate(24.9 388 388)"><rect width="24" height="24" class="w"/></g>
<g transform="translate(310.3 116.4)rotate(31.3 388 388)"><rect width="24" height="24" class="b"/></g>
<g transform="translate(296.7 149.1)rotate(37.7 388 388)"><rect width="24" height="24" class="w"/></g>
<g transform="translate(279.6 180.1)rotate(44.1 388 388)"><rect width="24" height="24" class="b"/></g>
<g transform="translate(259.1 209.0)rotate(50.6 388 388)"><rect width="24" height="24" class="w"/></g>
<g transform="translate(235.4 235.4)rotate(57.0 388 388)"><rect width="24" height="24" class="b"/></g>
<g transform="translate(209.0 259.1)rotate(63.4 388 388)"><rect width="24" height="24" class="w"/></g>
<g transform="translate(180.1 279.6)rotate(69.9 388 388)"><rect width="24" height="24" class="b"/></g>
<g transform="translate(149.1 296.7)rotate(76.3 388 388)"><rect width="24" height="24" class="w"/></g>
<g transform="translate(116.4 310.3)rotate(82.7 388 388)"><rect width="24" height="24" class="b"/></g>
<g transform="translate(82.3 320.1)rotate(89.1 388 388)"><rect width="24" height="24" class="w"/></g>
<g transform="translate(47.4 326.0)rotate(95.6 388 388)"><rect width="24" height="24" class="b"/></g>
<g transform="translate(12.0 328.0)rotate(102.0 388 388)"><rect width="24" height="24" class="w"/></g>
<g transform="translate(-23.4 326.0)rotate(108.4 388 388)"><rect width="24" height="24" class="b"/></g>
<g transform="translate(-58.3 320.1)rotate(114.9 388 388)"><rect width="24" height="24" class="w"/></g>
<g transform="translate(-92.4 310.3)rotate(121.3 388 388)"><rect width="24" height="24" class="b"/></g>
<g transform="translate(-125.1 296.7)rotate(127.7 388 388)"><rect width="24" height="24" class="w"/></g>
<g transform="translate(-156.1 279.6)rotate(134.1 388 388)"><rect width="24" height="24" class="b"/></g>
<g transform="translate(-185.0 259.1)rotate(140.6 388 388)"><rect width="24" height="24" class="w"/></g>
<g transform="translate(-211.4 235.4)rotate(147.0 388 388)"><rect width="24" height="24" class="b"/></g>
<g transform="translate(-235.1 209.0)rotate(153.4 388 388)"><rect width="24" height="24" class="w"/></g>
<g transform="translate(-255.6 180.1)rotate(159.9 388 388)"><rect width="24" height="24" class="b"/></g>
<g transform="translate(-272.7 149.1)rotate(166.3 388 388)"><rect width="24" height="24" class="w"/></g>
<g transform="translate(-286.3 116.4)rotate(172.7 388 388)"><rect width="24" height="24" class="b"/></g>
<g transform="translate(-296.1 82.3)rotate(179.1 388 388)"><rect width="24" height="24" class="w"/></g>
<g transform="translate(-302.0 47.4)rotate(185.6 388 388)"><rect width="24" height="24" class="b"/></g>
<g transform="translate(-304.0 12.0)rotate(192.0 388 388)"><rect width="24" height="24" class="w"/></g>
<g transform="translate(-302.0 -23.4)rotate(198.4 388 388)"><rect width="24" height="24" class="b"/></g>
<g transform="translate(-296.1 -58.3)rotate(204.9 388 388)"><rect width="24" height="24" class="w"/></g>
<g transform="translate(-286.3 -92.4)rotate(211.3 388 388)"><rect width="24" height="24" class="b"/></g>
<g transform="translate(-272.7 -125.1)rotate(217.7 388 388)"><rect width="24" height="24" class="w"/></g>
<g transform="translate(-255.6 -156.1)rotate(224.1 388 388)"><rect width="24" height="24" class="b"/></g>
<g transform="translate(-235.1 -185.0)rotate(230.6 388 388)"><rect width="24" height="24" class="w"/></g>
<g transform="translate(-211.4 -211.4)rotate(237.0 388 388)"><rect width="24" height="24" class="b"/></g>
<g transform="translate(-185.0 -235.1)rotate(243.4 388 388)"><rect width="24" height="24" class="w"/></g>
<g transform="translate(-156.1 -255.6)rotate(249.9 388 388)"><rect width="24" height="24" class="b"/></g>
<g transform="translate(-125.1 -272.7)rotate(256.3 388 388)"><rect width="24" height="24" class="w"/></g>
<g transform="translate(-92.4 -286.3)rotate(262.7 388 388)"><rect width="24" height="24" class="b"/></g>
<g transform="translate(-58.3 -296.1)rotate(269.1 388 388)"><rect width="24" height="24" class="w"/></g>
<g transform="translate(-23.4 -302.0)rotate(275.6 388 388)"><rect width="24" height="24" class="b"/></g>
<g transform="translate(12.0 -304.0)rotate(282.0 388 388)"><rect width="24" height="24" class="w"/></g>
<g transform="translate(47.4 -302.0)rotate(288.4 388 388)"><rect width="24" height="24" class="b"/></g>
<g transform="translate(82.3 -296.1)rotate(294.9 388 388)"><rect width="24" height="24" class="w"/></g>
<g transform="translate(116.4 -286.3)rotate(301.3 388 388)"><rect width="24" height="24" class="b"/></g>
<g transform="translate(149.1 -272.7)rotate(307.7 388 388)"><rect width="24" height="24" class="w"/></g>
<g transform="translate(180.1 -255.6)rotate(314.1 388 388)"><rect width="24" height="24" class="b"/></g>
<g transform="translate(209.0 -235.1)rotate(320.6 388 388)"><rect width="24" height="24" class="w"/></g>
<g transform="translate(235.4 -211.4)rotate(327.0 388 388)"><rect width="24" height="24" class="b"/></g>
<g transform="translate(259.1 -185.0)rotate(333.4 388 388)"><rect width="24" height="24" class="w"/></g>
<g transform="translate(279.6 -156.1)rotate(339.9 388 388)"><rect width="24" height="24" class="b"/></g>
<g transform="translate(296.7 -125.1)rotate(346.3 388 388)"><rect width="24" height="24" class="w"/></g>
<g transform="translate(310.3 -92.4)rotate(352.7 388 388)"><rect width="24" height="24" class="b"/></g>
<g transform="translate(320.1 -58.3)rotate(359.1 388 388)"><rect width="24" height="24" class="w"/></g>
<g transform="translate(326.0 -23.4)rotate(365.6 388 388)"><rect width="24" height="24" class="b"/></g>
</svg>
