<?xml version="1.0" encoding="UTF-8"?>
<svg width="800" height="800" viewBox="0 0 800 800" xmlns="http://www.w3.org/2000/svg">
<!-- Created by Ian Parberry -->
<style>ellipse{fill:none;stroke-width:3}ellipse.b{cx:400;cy:400;stroke:none;fill:black;}ellipse.w{cx:400;cy:400;stroke:none;fill:white;}</style>
<rect width="800" height="800" style="fill:gray"/>
<g transform="translate(-0.0 -300.0)rotate(0.0 400 400)"><ellipse cx="400" cy="400" rx="12.0" ry="6.0" class="b"/></g>
<g transform="translate(26.1 -298.9)rotate(5.0 400 400)"><ellipse cx="400" cy="400" rx="12.0" ry="6.0" /></g>
<g transform="translate(52.1 -295.4)rotate(10.0 400 400)"><ellipse cx="400" cy="400" rx="12.0" ry="6.0" class="w"/></g>
<g transform="translate(77.6 -289.8)rotate(15.0 400 400)"><ellipse cx="400" cy="400" rx="12.0" ry="6.0" /></g>
<g transform="translate(102.6 -281.9)rotate(20.0 400 400)"><ellipse cx="400" cy="400" rx="12.0" ry="6.0" class="b"/></g>
<g transform="translate(126.8 -271.9)rotate(25.0 400 400)"><ellipse cx="400" cy="400" rx="12.0" ry="6.0" /></g>
<g transform="translate(150.0 -259.8)rotate(30.0 400 400)"><ellipse cx="400" cy="400" rx="12.0" ry="6.0" class="w"/></g>
<g transform="translate(172.1 -245.7)rotate(35.0 400 400)"><ellipse cx="400" cy="400" rx="12.0" ry="6.0" /></g>
<g transform="translate(192.8 -229.8)rotate(40.0 400 400)"><ellipse cx="400" cy="400" rx="12.0" ry="6.0" class="b"/></g>
<g transform="translate(212.1 -212.1)rotate(45.0 400 400)"><ellipse cx="400" cy="400" rx="12.0" ry="6.0" /></g>
<g transform="translate(229.8 -192.8)rotate(50.0 400 400)"><ellipse cx="400" cy="400" rx="12.0" ry="6.0" class="w"/></g>
<g transform="translate(245.7 -172.1)rotate(55.0 400 400)"><ellipse cx="400" cy="400" rx="12.0" ry="6.0" /></g>
<g transform="translate(259.8 -150.0)rotate(60.0 400 400)"><ellipse cx="400" cy="400" rx="12.0" ry="6.0" class="b"/></g>
<g transform="translate(271.9 -126.8)rotate(65.0 400 400)"><ellipse cx="400" cy="400" rx="12.0" ry="6.0" /></g>
<g transform="translate(281.9 -102.6)rotate(70.0 400 400)"><ellipse cx="400" cy="400" rx="12.0" ry="6.0" class="w"/></g>
<g transform="translate(289.8 -77.6)rotate(75.0 400 400)"><ellipse cx="400" cy="400" rx="12.0" ry="6.0" /></g>
<g transform="translate(295.4 -52.1)rotate(80.0 400 400)"><ellipse cx="400" cy="400" rx="12.0" ry="6.0" class="b"/></g>
<g transform="translate(298.9 -26.1)rotate(85.0 400 400)"><ellipse cx="400" cy="400" rx="12.0" ry="6.0" /></g>
<g transform="translate(300.0 -0.0)rotate(90.0 400 400)"><ellipse cx="400" cy="400" rx="12.0" ry="6.0" class="w"/></g>
<g transform="translate(298.9 26.1)rotate(95.0 400 400)"><ellipse cx="400" cy="400" rx="12.0" ry="6.0" /></g>
<g transform="translate(295.4 52.1)rotate(100.0 400 400)"><ellipse cx="400" cy="400" rx="12.0" ry="6.0" class="b"/></g>
<g transform="translate(289.8 77.6)rotate(105.0 400 400)"><ellipse cx="400" cy="400" rx="12.0" ry="6.0" /></g>
<g transform="translate(281.9 102.6)rotate(110.0 400 400)"><ellipse cx="400" cy="400" rx="12.0" ry="6.0" class="w"/></g>
<g transform="translate(271.9 126.8)rotate(115.0 400 400)"><ellipse cx="400" cy="400" rx="12.0" ry="6.0" /></g>
<g transform="translate(259.8 150.0)rotate(120.0 400 400)"><ellipse cx="400" cy="400" rx="12.0" ry="6.0" class="b"/></g>
<g transform="translate(245.7 172.1)rotate(125.0 400 400)"><ellipse cx="400" cy="400" rx="12.0" ry="6.0" /></g>
<g transform="translate(229.8 192.8)rotate(130.0 400 400)"><ellipse cx="400" cy="400" rx="12.0" ry="6.0" class="w"/></g>
<g transform="translate(212.1 212.1)rotate(135.0 400 400)"><ellipse cx="400" cy="400" rx="12.0" ry="6.0" /></g>
<g transform="translate(192.8 229.8)rotate(140.0 400 400)"><ellipse cx="400" cy="400" rx="12.0" ry="6.0" class="b"/></g>
<g transform="translate(172.1 245.7)rotate(145.0 400 400)"><ellipse cx="400" cy="400" rx="12.0" ry="6.0" /></g>
<g transform="translate(150.0 259.8)rotate(150.0 400 400)"><ellipse cx="400" cy="400" rx="12.0" ry="6.0" class="w"/></g>
<g transform="translate(126.8 271.9)rotate(155.0 400 400)"><ellipse cx="400" cy="400" rx="12.0" ry="6.0" /></g>
<g transform="translate(102.6 281.9)rotate(160.0 400 400)"><ellipse cx="400" cy="400" rx="12.0" ry="6.0" class="b"/></g>
<g transform="translate(77.6 289.8)rotate(165.0 400 400)"><ellipse cx="400" cy="400" rx="12.0" ry="6.0" /></g>
<g transform="translate(52.1 295.4)rotate(170.0 400 400)"><ellipse cx="400" cy="400" rx="12.0" ry="6.0" class="w"/></g>
<g transform="translate(26.1 298.9)rotate(175.0 400 400)"><ellipse cx="400" cy="400" rx="12.0" ry="6.0" /></g>
<g transform="translate(0.0 300.0)rotate(180.0 400 400)"><ellipse cx="400" cy="400" rx="12.0" ry="6.0" class="b"/></g>
<g transform="translate(-26.1 298.9)rotate(185.0 400 400)"><ellipse cx="400" cy="400" rx="12.0" ry="6.0" /></g>
<g transform="translate(-52.1 295.4)rotate(190.0 400 400)"><ellipse cx="400" cy="400" rx="12.0" ry="6.0" class="w"/></g>
<g transform="translate(-77.6 289.8)rotate(195.0 400 400)"><ellipse cx="400" cy="400" rx="12.0" ry="6.0" /></g>
<g transform="translate(-102.6 281.9)rotate(200.0 400 400)"><ellipse cx="400" cy="400" rx="12.0" ry="6.0" class="b"/></g>
<g transform="translate(-126.8 271.9)rotate(205.0 400 400)"><ellipse cx="400" cy="400" rx="12.0" ry="6.0" /></g>
<g transform="translate(-150.0 259.8)rotate(210.0 400 400)"><ellipse cx="400" cy="400" rx="12.0" ry="6.0" class="w"/></g>
<g transform="translate(-172.1 245.7)rotate(215.0 400 400)"><ellipse cx="400" cy="400" rx="12.0" ry="6.0" /></g>
<g transform="translate(-192.8 229.8)rotate(220.0 400 400)"><ellipse cx="400" cy="400" rx="12.0" ry="6.0" class="b"/></g>
<g transform="translate(-212.1 212.1)rotate(225.0 400 400)"><ellipse cx="400" cy="400" rx="12.0" ry="6.0" /></g>
<g transform="translate(-229.8 192.8)rotate(230.0 400 400)"><ellipse cx="400" cy="400" rx="12.0" ry="6.0" class="w"/></g>
<g transform="translate(-245.7 172.1)rotate(235.0 400 400)"><ellipse cx="400" cy="400" rx="12.0" ry="6.0" /></g>
<g transform="translate(-259.8 150.0)rotate(240.0 400 400)"><ellipse cx="400" cy="400" rx="12.0" ry="6.0" class="b"/></g>
<g transform="translate(-271.9 126.8)rotate(245.0 400 400)"><ellipse cx="400" cy="400" rx="12.0" ry="6.0" /></g>
<g transform="translate(-281.9 102.6)rotate(250.0 400 400)"><ellipse cx="400" cy="400" rx="12.0" ry="6.0" class="w"/></g>
<g transform="translate(-289.8 77.6)rotate(255.0 400 400)"><ellipse cx="400" cy="400" rx="12.0" ry="6.0" /></g>
<g transform="translate(-295.4 52.1)rotate(260.0 400 400)"><ellipse cx="400" cy="400" rx="12.0" ry="6.0" class="b"/></g>
<g transform="translate(-298.9 26.1)rotate(265.0 400 400)"><ellipse cx="400" cy="400" rx="12.0" ry="6.0" /></g>
<g transform="translate(-300.0 0.0)rotate(270.0 400 400)"><ellipse cx="400" cy="400" rx="12.0" ry="6.0" class="w"/></g>
<g transform="translate(-298.9 -26.1)rotate(275.0 400 400)"><ellipse cx="400" cy="400" rx="12.0" ry="6.0" /></g>
<g transform="translate(-295.4 -52.1)rotate(280.0 400 400)"><ellipse cx="400" cy="400" rx="12.0" ry="6.0" class="b"/></g>
<g transform="translate(-289.8 -77.6)rotate(285.0 400 400)"><ellipse cx="400" cy="400" rx="12.0" ry="6.0" /></g>
<g transform="translate(-281.9 -102.6)rotate(290.0 400 400)"><ellipse cx="400" cy="400" rx="12.0" ry="6.0" class="w"/></g>
<g transform="translate(-271.9 -126.8)rotate(295.0 400 400)"><ellipse cx="400" cy="400" rx="12.0" ry="6.0" /></g>
<g transform="translate(-259.8 -150.0)rotate(300.0 400 400)"><ellipse cx="400" cy="400" rx="12.0" ry="6.0" class="b"/></g>
<g transform="translate(-245.7 -172.1)rotate(305.0 400 400)"><ellipse cx="400" cy="400" rx="12.0" ry="6.0" /></g>
<g transform="translate(-229.8 -192.8)rotate(310.0 400 400)"><ellipse cx="400" cy="400" rx="12.0" ry="6.0" class="w"/></g>
<g transform="translate(-212.1 -212.1)rotate(315.0 400 400)"><ellipse cx="400" cy="400" rx="12.0" ry="6.0" /></g>
<g transform="translate(-192.8 -229.8)rotate(320.0 400 400)"><ellipse cx="400" cy="400" rx="12.0" ry="6.0" class="b"/></g>
<g transform="translate(-172.1 -245.7)rotate(325.0 400 400)"><ellipse cx="400" cy="400" rx="12.0" ry="6.0" /></g>
<g transform="translate(-150.0 -259.8)rotate(330.0 400 400)"><ellipse cx="400" cy="400" rx="12.0" ry="6.0" class="w"/></g>
<g transform="translate(-126.8 -271.9)rotate(335.0 400 400)"><ellipse cx="400" cy="400" rx="12.0" ry="6.0" /></g>
<g transform="translate(-102.6 -281.9)rotate(340.0 400 400)"><ellipse cx="400" cy="400" rx="12.0" ry="6.0" class="b"/></g>
<g transform="translate(-77.6 -289.8)rotate(345.0 400 400)"><ellipse cx="400" cy="400" rx="12.0" ry="6.0" /></g>
<g transform="translate(-52.1 -295.4)rotate(350.0 400 400)"><ellipse cx="400" cy="400" rx="12.0" ry="6.0" class="w"/></g>
<g transform="translate(-26.1 -298.9)rotate(355.0 400 400)"><ellipse cx="400" cy="400" rx="12.0" ry="6.0" /></g>
<g transform="translate(25.6 -292.9)rotate(5.0 400 400)"><ellipse cx="400" cy="400" rx="12.0" ry="6.0" class="b"/></g>
<g transform="translate(51.1 -289.5)rotate(10.0 400 400)"><ellipse cx="400" cy="400" rx="12.0" ry="6.0" /></g>
<g transform="translate(76.1 -284.0)rotate(15.0 400 400)"><ellipse cx="400" cy="400" rx="12.0" ry="6.0" class="w"/></g>
<g transform="translate(100.6 -276.3)rotate(20.0 400 400)"><ellipse cx="400" cy="400" rx="12.0" ry="6.0" /></g>
<g transform="translate(124.2 -266.5)rotate(25.0 400 400)"><ellipse cx="400" cy="400" rx="12.0" ry="6.0" class="b"/></g>
<g transform="translate(147.0 -254.6)rotate(30.0 400 400)"><ellipse cx="400" cy="400" rx="12.0" ry="6.0" /></g>
<g transform="translate(168.6 -240.8)rotate(35.0 400 400)"><ellipse cx="400" cy="400" rx="12.0" ry="6.0" class="w"/></g>
<g transform="translate(189.0 -225.2)rotate(40.0 400 400)"><ellipse cx="400" cy="400" rx="12.0" ry="6.0" /></g>
<g transform="translate(207.9 -207.9)rotate(45.0 400 400)"><ellipse cx="400" cy="400" rx="12.0" ry="6.0" class="b"/></g>
<g transform="translate(225.2 -189.0)rotate(50.0 400 400)"><ellipse cx="400" cy="400" rx="12.0" ry="6.0" /></g>
<g transform="translate(240.8 -168.6)rotate(55.0 400 400)"><ellipse cx="400" cy="400" rx="12.0" ry="6.0" class="w"/></g>
<g transform="translate(254.6 -147.0)rotate(60.0 400 400)"><ellipse cx="400" cy="400" rx="12.0" ry="6.0" /></g>
<g transform="translate(266.5 -124.2)rotate(65.0 400 400)"><ellipse cx="400" cy="400" rx="12.0" ry="6.0" class="b"/></g>
<g transform="translate(276.3 -100.6)rotate(70.0 400 400)"><ellipse cx="400" cy="400" rx="12.0" ry="6.0" /></g>
<g transform="translate(284.0 -76.1)rotate(75.0 400 400)"><ellipse cx="400" cy="400" rx="12.0" ry="6.0" class="w"/></g>
<g transform="translate(289.5 -51.1)rotate(80.0 400 400)"><ellipse cx="400" cy="400" rx="12.0" ry="6.0" /></g>
<g transform="translate(292.9 -25.6)rotate(85.0 400 400)"><ellipse cx="400" cy="400" rx="12.0" ry="6.0" class="b"/></g>
<g transform="translate(294.0 -0.0)rotate(90.0 400 400)"><ellipse cx="400" cy="400" rx="12.0" ry="6.0" /></g>
<g transform="translate(292.9 25.6)rotate(95.0 400 400)"><ellipse cx="400" cy="400" rx="12.0" ry="6.0" class="w"/></g>
<g transform="translate(289.5 51.1)rotate(100.0 400 400)"><ellipse cx="400" cy="400" rx="12.0" ry="6.0" /></g>
<g transform="translate(284.0 76.1)rotate(105.0 400 400)"><ellipse cx="400" cy="400" rx="12.0" ry="6.0" class="b"/></g>
<g transform="translate(276.3 100.6)rotate(110.0 400 400)"><ellipse cx="400" cy="400" rx="12.0" ry="6.0" /></g>
<g transform="translate(266.5 124.2)rotate(115.0 400 400)"><ellipse cx="400" cy="400" rx="12.0" ry="6.0" class="w"/></g>
<g transform="translate(254.6 147.0)rotate(120.0 400 400)"><ellipse cx="400" cy="400" rx="12.0" ry="6.0" /></g>
<g transform="translate(240.8 168.6)rotate(125.0 400 400)"><ellipse cx="400" cy="400" rx="12.0" ry="6.0" class="b"/></g>
<g transform="translate(225.2 189.0)rotate(130.0 400 400)"><ellipse cx="400" cy="400" rx="12.0" ry="6.0" /></g>
<g transform="translate(207.9 207.9)rotate(135.0 400 400)"><ellipse cx="400" cy="400" rx="12.0" ry="6.0" class="w"/></g>
<g transform="translate(189.0 225.2)rotate(140.0 400 400)"><ellipse cx="400" cy="400" rx="12.0" ry="6.0" /></g>
<g transform="translate(168.6 240.8)rotate(145.0 400 400)"><ellipse cx="400" cy="400" rx="12.0" ry="6.0" class="b"/></g>
<g transform="translate(147.0 254.6)rotate(150.0 400 400)"><ellipse cx="400" cy="400" rx="12.0" ry="6.0" /></g>
<g transform="translate(124.2 266.5)rotate(155.0 400 400)"><ellipse cx="400" cy="400" rx="12.0" ry="6.0" class="w"/></g>
<g transform="translate(100.6 276.3)rotate(160.0 400 400)"><ellipse cx="400" cy="400" rx="12.0" ry="6.0" /></g>
<g transform="translate(76.1 284.0)rotate(165.0 400 400)"><ellipse cx="400" cy="400" rx="12.0" ry="6.0" class="b"/></g>
<g transform="translate(51.1 289.5)rotate(170.0 400 400)"><ellipse cx="400" cy="400" rx="12.0" ry="6.0" /></g>
<g transform="translate(25.6 292.9)rotate(175.0 400 400)"><ellipse cx="400" cy="400" rx="12.0" ry="6.0" class="w"/></g>
<g transform="translate(0.0 294.0)rotate(180.0 400 400)"><ellipse cx="400" cy="400" rx="12.0" ry="6.0" /></g>
<g transform="translate(-25.6 292.9)rotate(185.0 400 400)"><ellipse cx="400" cy="400" rx="12.0" ry="6.0" class="w"/></g>
<g transform="translate(-51.1 289.5)rotate(190.0 400 400)"><ellipse cx="400" cy="400" rx="12.0" ry="6.0" /></g>
<g transform="translate(-76.1 284.0)rotate(195.0 400 400)"><ellipse cx="400" cy="400" rx="12.0" ry="6.0" class="b"/></g>
<g transform="translate(-100.6 276.3)rotate(200.0 400 400)"><ellipse cx="400" cy="400" rx="12.0" ry="6.0" /></g>
<g transform="translate(-124.2 266.5)rotate(205.0 400 400)"><ellipse cx="400" cy="400" rx="12.0" ry="6.0" class="w"/></g>
<g transform="translate(-147.0 254.6)rotate(210.0 400 400)"><ellipse cx="400" cy="400" rx="12.0" ry="6.0" /></g>
<g transform="translate(-168.6 240.8)rotate(215.0 400 400)"><ellipse cx="400" cy="400" rx="12.0" ry="6.0" class="b"/></g>
<g transform="translate(-189.0 225.2)rotate(220.0 400 400)"><ellipse cx="400" cy="400" rx="12.0" ry="6.0" /></g>
<g transform="translate(-207.9 207.9)rotate(225.0 400 400)"><ellipse cx="400" cy="400" rx="12.0" ry="6.0" class="w"/></g>
<g transform="translate(-225.2 189.0)rotate(230.0 400 400)"><ellipse cx="400" cy="400" rx="12.0" ry="6.0" /></g>
<g transform="translate(-240.8 168.6)rotate(235.0 400 400)"><ellipse cx="400" cy="400" rx="12.0" ry="6.0" class="b"/></g>
<g transform="translate(-254.6 147.0)rotate(240.0 400 400)"><ellipse cx="400" cy="400" rx="12.0" ry="6.0" /></g>
<g transform="translate(-266.5 124.2)rotate(245.0 400 400)"><ellipse cx="400" cy="400" rx="12.0" ry="6.0" class="w"/></g>
<g transform="translate(-276.3 100.6)rotate(250.0 400 400)"><ellipse cx="400" cy="400" rx="12.0" ry="6.0" /></g>
<g transform="translate(-284.0 76.1)rotate(255.0 400 400)"><ellipse cx="400" cy="400" rx="12.0" ry="6.0" class="b"/></g>
<g transform="translate(-289.5 51.1)rotate(260.0 400 400)"><ellipse cx="400" cy="400" rx="12.0" ry="6.0" /></g>
<g transform="translate(-292.9 25.6)rotate(265.0 400 400)"><ellipse cx="400" cy="400" rx="12.0" ry="6.0" class="w"/></g>
<g transform="translate(-294.0 0.0)rotate(270.0 400 400)"><ellipse cx="400" cy="400" rx="12.0" ry="6.0" /></g>
<g transform="translate(-292.9 -25.6)rotate(275.0 400 400)"><ellipse cx="400" cy="400" rx="12.0" ry="6.0" class="b"/></g>
<g transform="translate(-289.5 -51.1)rotate(280.0 400 400)"><ellipse cx="400" cy="400" rx="12.0" ry="6.0" /></g>
<g transform="translate(-284.0 -76.1)rotate(285.0 400 400)"><ellipse cx="400" cy="400" rx="12.0" ry="6.0" class="w"/></g>
<g transform="translate(-276.3 -100.6)rotate(290.0 400 400)"><ellipse cx="400" cy="400" rx="12.0" ry="6.0" /></g>
<g transform="translate(-266.5 -124.2)rotate(295.0 400 400)"><ellipse cx="400" cy="400" rx="12.0" ry="6.0" class="b"/></g>
<g transform="translate(-254.6 -147.0)rotate(300.0 400 400)"><ellipse cx="400" cy="400" rx="12.0" ry="6.0" /></g>
<g transform="translate(-240.8 -168.6)rotate(305.0 400 400)"><ellipse cx="400" cy="400" rx="12.0" ry="6.0" class="w"/></g>
<g transform="translate(-225.2 -189.0)rotate(310.0 400 400)"><ellipse cx="400" cy="400" rx="12.0" ry="6.0" /></g>
<g transform="translate(-207.9 -207.9)rotate(315.0 400 400)"><ellipse cx="400" cy="400" rx="12.0" ry="6.0" class="b"/></g>
<g transform="translate(-189.0 -225.2)rotate(320.0 400 400)"><ellipse cx="400" cy="400" rx="12.0" ry="6.0" /></g>
<g transform="translate(-168.6 -240.8)rotate(325.0 400 400)"><ellipse cx="400" cy="400" rx="12.0" ry="6.0" class="w"/></g>
<g transform="translate(-147.0 -254.6)rotate(330.0 400 400)"><ellipse cx="400" cy="400" rx="12.0" ry="6.0" /></g>
<g transform="translate(-124.3 -266.5)rotate(335.0 400 400)"><ellipse cx="400" cy="400" rx="12.0" ry="6.0" class="b"/></g>
<g transform="translate(-100.6 -276.3)rotate(340.0 400 400)"><ellipse cx="400" cy="400" rx="12.0" ry="6.0" /></g>
<g transform="translate(-76.1 -284.0)rotate(345.0 400 400)"><ellipse cx="400" cy="400" rx="12.0" ry="6.0" class="w"/></g>
<g transform="translate(-51.1 -289.5)rotate(350.0 400 400)"><ellipse cx="400" cy="400" rx="12.0" ry="6.0" /></g>
<g transform="translate(-25.6 -292.9)rotate(355.0 400 400)"><ellipse cx="400" cy="400" rx="12.0" ry="6.0" class="b"/></g>
<g transform="translate(-0.0 -294.0)rotate(360.0 400 400)"><ellipse cx="400" cy="400" rx="12.0" ry="6.0" /></g>
<g transform="translate(26.7 -304.8)rotate(5.0 400 400)"><ellipse cx="400" cy="400" rx="12.0" ry="6.0" class="w"/></g>
<g transform="translate(53.1 -301.4)rotate(10.0 400 400)"><ellipse cx="400" cy="400" rx="12.0" ry="6.0" /></g>
<g transform="translate(79.2 -295.6)rotate(15.0 400 400)"><ellipse cx="400" cy="400" rx="12.0" ry="6.0" class="b"/></g>
<g transform="translate(104.7 -287.5)rotate(20.0 400 400)"><ellipse cx="400" cy="400" rx="12.0" ry="6.0" /></g>
<g transform="translate(129.3 -277.3)rotate(25.0 400 400)"><ellipse cx="400" cy="400" rx="12.0" ry="6.0" class="w"/></g>
<g transform="translate(153.0 -265.0)rotate(30.0 400 400)"><ellipse cx="400" cy="400" rx="12.0" ry="6.0" /></g>
<g transform="translate(175.5 -250.7)rotate(35.0 400 400)"><ellipse cx="400" cy="400" rx="12.0" ry="6.0" class="b"/></g>
<g transform="translate(196.7 -234.4)rotate(40.0 400 400)"><ellipse cx="400" cy="400" rx="12.0" ry="6.0" /></g>
<g transform="translate(216.4 -216.4)rotate(45.0 400 400)"><ellipse cx="400" cy="400" rx="12.0" ry="6.0" class="w"/></g>
<g transform="translate(234.4 -196.7)rotate(50.0 400 400)"><ellipse cx="400" cy="400" rx="12.0" ry="6.0" /></g>
<g transform="translate(250.7 -175.5)rotate(55.0 400 400)"><ellipse cx="400" cy="400" rx="12.0" ry="6.0" class="b"/></g>
<g transform="translate(265.0 -153.0)rotate(60.0 400 400)"><ellipse cx="400" cy="400" rx="12.0" ry="6.0" /></g>
<g transform="translate(277.3 -129.3)rotate(65.0 400 400)"><ellipse cx="400" cy="400" rx="12.0" ry="6.0" class="w"/></g>
<g transform="translate(287.5 -104.7)rotate(70.0 400 400)"><ellipse cx="400" cy="400" rx="12.0" ry="6.0" /></g>
<g transform="translate(295.6 -79.2)rotate(75.0 400 400)"><ellipse cx="400" cy="400" rx="12.0" ry="6.0" class="b"/></g>
<g transform="translate(301.4 -53.1)rotate(80.0 400 400)"><ellipse cx="400" cy="400" rx="12.0" ry="6.0" /></g>
<g transform="translate(304.8 -26.7)rotate(85.0 400 400)"><ellipse cx="400" cy="400" rx="12.0" ry="6.0" class="w"/></g>
<g transform="translate(306.0 -0.0)rotate(90.0 400 400)"><ellipse cx="400" cy="400" rx="12.0" ry="6.0" /></g>
<g transform="translate(304.8 26.7)rotate(95.0 400 400)"><ellipse cx="400" cy="400" rx="12.0" ry="6.0" class="b"/></g>
<g transform="translate(301.4 53.1)rotate(100.0 400 400)"><ellipse cx="400" cy="400" rx="12.0" ry="6.0" /></g>
<g transform="translate(295.6 79.2)rotate(105.0 400 400)"><ellipse cx="400" cy="400" rx="12.0" ry="6.0" class="w"/></g>
<g transform="translate(287.5 104.7)rotate(110.0 400 400)"><ellipse cx="400" cy="400" rx="12.0" ry="6.0" /></g>
<g transform="translate(277.3 129.3)rotate(115.0 400 400)"><ellipse cx="400" cy="400" rx="12.0" ry="6.0" class="b"/></g>
<g transform="translate(265.0 153.0)rotate(120.0 400 400)"><ellipse cx="400" cy="400" rx="12.0" ry="6.0" /></g>
<g transform="translate(250.7 175.5)rotate(125.0 400 400)"><ellipse cx="400" cy="400" rx="12.0" ry="6.0" class="w"/></g>
<g transform="translate(234.4 196.7)rotate(130.0 400 400)"><ellipse cx="400" cy="400" rx="12.0" ry="6.0" /></g>
<g transform="translate(216.4 216.4)rotate(135.0 400 400)"><ellipse cx="400" cy="400" rx="12.0" ry="6.0" class="b"/></g>
<g transform="translate(196.7 234.4)rotate(140.0 400 400)"><ellipse cx="400" cy="400" rx="12.0" ry="6.0" /></g>
<g transform="translate(175.5 250.7)rotate(145.0 400 400)"><ellipse cx="400" cy="400" rx="12.0" ry="6.0" class="w"/></g>
<g transform="translate(153.0 265.0)rotate(150.0 400 400)"><ellipse cx="400" cy="400" rx="12.0" ry="6.0" /></g>
<g transform="translate(129.3 277.3)rotate(155.0 400 400)"><ellipse cx="400" cy="400" rx="12.0" ry="6.0" class="b"/></g>
<g transform="translate(104.7 287.5)rotate(160.0 400 400)"><ellipse cx="400" cy="400" rx="12.0" ry="6.0" /></g>
<g transform="translate(79.2 295.6)rotate(165.0 400 400)"><ellipse cx="400" cy="400" rx="12.0" ry="6.0" class="w"/></g>
<g transform="translate(53.1 301.4)rotate(170.0 400 400)"><ellipse cx="400" cy="400" rx="12.0" ry="6.0" /></g>
<g transform="translate(26.7 304.8)rotate(175.0 400 400)"><ellipse cx="400" cy="400" rx="12.0" ry="6.0" class="b"/></g>
<g transform="translate(0.0 306.0)rotate(180.0 400 400)"><ellipse cx="400" cy="400" rx="12.0" ry="6.0" /></g>
<g transform="translate(-26.7 304.8)rotate(185.0 400 400)"><ellipse cx="400" cy="400" rx="12.0" ry="6.0" class="b"/></g>
<g transform="translate(-53.1 301.4)rotate(190.0 400 400)"><ellipse cx="400" cy="400" rx="12.0" ry="6.0" /></g>
<g transform="translate(-79.2 295.6)rotate(195.0 400 400)"><ellipse cx="400" cy="400" rx="12.0" ry="6.0" class="w"/></g>
<g transform="translate(-104.7 287.5)rotate(200.0 400 400)"><ellipse cx="400" cy="400" rx="12.0" ry="6.0" /></g>
<g transform="translate(-129.3 277.3)rotate(205.0 400 400)"><ellipse cx="400" cy="400" rx="12.0" ry="6.0" class="b"/></g>
<g transform="translate(-153.0 265.0)rotate(210.0 400 400)"><ellipse cx="400" cy="400" rx="12.0" ry="6.0" /></g>
<g transform="translate(-175.5 250.7)rotate(215.0 400 400)"><ellipse cx="400" cy="400" rx="12.0" ry="6.0" class="w"/></g>
<g transform="translate(-196.7 234.4)rotate(220.0 400 400)"><ellipse cx="400" cy="400" rx="12.0" ry="6.0" /></g>
<g transform="translate(-216.4 216.4)rotate(225.0 400 400)"><ellipse cx="400" cy="400" rx="12.0" ry="6.0" class="b"/></g>
<g transform="translate(-234.4 196.7)rotate(230.0 400 400)"><ellipse cx="400" cy="400" rx="12.0" ry="6.0" /></g>
<g transform="translate(-250.7 175.5)rotate(235.0 400 400)"><ellipse cx="400" cy="400" rx="12.0" ry="6.0" class="w"/></g>
<g transform="translate(-265.0 153.0)rotate(240.0 400 400)"><ellipse cx="400" cy="400" rx="12.0" ry="6.0" /></g>
<g transform="translate(-277.3 129.3)rotate(245.0 400 400)"><ellipse cx="400" cy="400" rx="12.0" ry="6.0" class="b"/></g>
<g transform="translate(-287.5 104.7)rotate(250.0 400 400)"><ellipse cx="400" cy="400" rx="12.0" ry="6.0" /></g>
<g transform="translate(-295.6 79.2)rotate(255.0 400 400)"><ellipse cx="400" cy="400" rx="12.0" ry="6.0" class="w"/></g>
<g transform="translate(-301.4 53.1)rotate(260.0 400 400)"><ellipse cx="400" cy="400" rx="12.0" ry="6.0" /></g>
<g transform="translate(-304.8 26.7)rotate(265.0 400 400)"><ellipse cx="400" cy="400" rx="12.0" ry="6.0" class="b"/></g>
<g transform="translate(-306.0 0.0)rotate(270.0 400 400)"><ellipse cx="400" cy="400" rx="12.0" ry="6.0" /></g>
<g transform="translate(-304.8 -26.7)rotate(275.0 400 400)"><ellipse cx="400" cy="400" rx="12.0" ry="6.0" class="w"/></g>
<g transform="translate(-301.4 -53.1)rotate(280.0 400 400)"><ellipse cx="400" cy="400" rx="12.0" ry="6.0" /></g>
<g transform="translate(-295.6 -79.2)rotate(285.0 400 400)"><ellipse cx="400" cy="400" rx="12.0" ry="6.0" class="b"/></g>
<g transform="translate(-287.5 -104.7)rotate(290.0 400 400)"><ellipse cx="400" cy="400" rx="12.0" ry="6.0" /></g>
<g transform="translate(-277.3 -129.3)rotate(295.0 400 400)"><ellipse cx="400" cy="400" rx="12.0" ry="6.0" class="w"/></g>
<g transform="translate(-265.0 -153.0)rotate(300.0 400 400)"><ellipse cx="400" cy="400" rx="12.0" ry="6.0" /></g>
<g transform="translate(-250.7 -175.5)rotate(305.0 400 400)"><ellipse cx="400" cy="400" rx="12.0" ry="6.0" class="b"/></g>
<g transform="translate(-234.4 -196.7)rotate(310.0 400 400)"><ellipse cx="400" cy="400" rx="12.0" ry="6.0" /></g>
<g transform="translate(-216.4 -216.4)rotate(315.0 400 400)"><ellipse cx="400" cy="400" rx="12.0" ry="6.0" class="w"/></g>
<g transform="translate(-196.7 -234.4)rotate(320.0 400 400)"><ellipse cx="400" cy="400" rx="12.0" ry="6.0" /></g>
<g transform="translate(-175.5 -250.7)rotate(325.0 400 400)"><ellipse cx="400" cy="400" rx="12.0" ry="6.0" class="b"/></g>
<g transform="translate(-153.0 -265.0)rotate(330.0 400 400)"><ellipse cx="400" cy="400" rx="12.0" ry="6.0" /></g>
<g transform="translate(-129.3 -277.3)rotate(335.0 400 400)"><ellipse cx="400" cy="400" rx="12.0" ry="6.0" class="w"/></g>
<g transform="translate(-104.7 -287.5)rotate(340.0 400 400)"><ellipse cx="400" cy="400" rx="12.0" ry="6.0" /></g>
<g transform="translate(-79.2 -295.6)rotate(345.0 400 400)"><ellipse cx="400" cy="400" rx="12.0" ry="6.0" class="b"/></g>
<g transform="translate(-53.1 -301.4)rotate(350.0 400 400)"><ellipse cx="400" cy="400" rx="12.0" ry="6.0" /></g>
<g transform="translate(-26.7 -304.8)rotate(355.0 400 400)"><ellipse cx="400" cy="400" rx="12.0" ry="6.0" class="w"/></g>
<g transform="translate(-0.0 -306.0)rotate(360.0 400 400)"><ellipse cx="400" cy="400" rx="12.0" ry="6.0" /></g>
<g transform="translate(-0.0 236.0)rotate(180.0 400 400)"><ellipse cx="400" cy="400" rx="9.6" ry="4.8" class="b"/></g>
<g transform="translate(-20.6 235.1)rotate(185.0 400 400)"><ellipse cx="400" cy="400" rx="9.6" ry="4.8" /></g>
<g transform="translate(-41.0 232.4)rotate(190.0 400 400)"><ellipse cx="400" cy="400" rx="9.6" ry="4.8" class="w"/></g>
<g transform="translate(-61.1 228.0)rotate(195.0 400 400)"><ellipse cx="400" cy="400" rx="9.6" ry="4.8" /></g>
<g transform="translate(-80.7 221.8)rotate(200.0 400 400)"><ellipse cx="400" cy="400" rx="9.6" ry="4.8" class="b"/></g>
<g transform="translate(-99.7 213.9)rotate(205.0 400 400)"><ellipse cx="400" cy="400" rx="9.6" ry="4.8" /></g>
<g transform="translate(-118.0 204.4)rotate(210.0 400 400)"><ellipse cx="400" cy="400" rx="9.6" ry="4.8" class="w"/></g>
<g transform="translate(-135.4 193.3)rotate(215.0 400 400)"><ellipse cx="400" cy="400" rx="9.6" ry="4.8" /></g>
<g transform="translate(-151.7 180.8)rotate(220.0 400 400)"><ellipse cx="400" cy="400" rx="9.6" ry="4.8" class="b"/></g>
<g transform="translate(-166.9 166.9)rotate(225.0 400 400)"><ellipse cx="400" cy="400" rx="9.6" ry="4.8" /></g>
<g transform="translate(-180.8 151.7)rotate(230.0 400 400)"><ellipse cx="400" cy="400" rx="9.6" ry="4.8" class="w"/></g>
<g transform="translate(-193.3 135.4)rotate(235.0 400 400)"><ellipse cx="400" cy="400" rx="9.6" ry="4.8" /></g>
<g transform="translate(-204.4 118.0)rotate(240.0 400 400)"><ellipse cx="400" cy="400" rx="9.6" ry="4.8" class="b"/></g>
<g transform="translate(-213.9 99.7)rotate(245.0 400 400)"><ellipse cx="400" cy="400" rx="9.6" ry="4.8" /></g>
<g transform="translate(-221.8 80.7)rotate(250.0 400 400)"><ellipse cx="400" cy="400" rx="9.6" ry="4.8" class="w"/></g>
<g transform="translate(-228.0 61.1)rotate(255.0 400 400)"><ellipse cx="400" cy="400" rx="9.6" ry="4.8" /></g>
<g transform="translate(-232.4 41.0)rotate(260.0 400 400)"><ellipse cx="400" cy="400" rx="9.6" ry="4.8" class="b"/></g>
<g transform="translate(-235.1 20.6)rotate(265.0 400 400)"><ellipse cx="400" cy="400" rx="9.6" ry="4.8" /></g>
<g transform="translate(-236.0 0.0)rotate(270.0 400 400)"><ellipse cx="400" cy="400" rx="9.6" ry="4.8" class="w"/></g>
<g transform="translate(-235.1 -20.6)rotate(275.0 400 400)"><ellipse cx="400" cy="400" rx="9.6" ry="4.8" /></g>
<g transform="translate(-232.4 -41.0)rotate(280.0 400 400)"><ellipse cx="400" cy="400" rx="9.6" ry="4.8" class="b"/></g>
<g transform="translate(-228.0 -61.1)rotate(285.0 400 400)"><ellipse cx="400" cy="400" rx="9.6" ry="4.8" /></g>
<g transform="translate(-221.8 -80.7)rotate(290.0 400 400)"><ellipse cx="400" cy="400" rx="9.6" ry="4.8" class="w"/></g>
<g transform="translate(-213.9 -99.7)rotate(295.0 400 400)"><ellipse cx="400" cy="400" rx="9.6" ry="4.8" /></g>
<g transform="translate(-204.4 -118.0)rotate(300.0 400 400)"><ellipse cx="400" cy="400" rx="9.6" ry="4.8" class="b"/></g>
<g transform="translate(-193.3 -135.4)rotate(305.0 400 400)"><ellipse cx="400" cy="400" rx="9.6" ry="4.8" /></g>
<g transform="translate(-180.8 -151.7)rotate(310.0 400 400)"><ellipse cx="400" cy="400" rx="9.6" ry="4.8" class="w"/></g>
<g transform="translate(-166.9 -166.9)rotate(315.0 400 400)"><ellipse cx="400" cy="400" rx="9.6" ry="4.8" /></g>
<g transform="translate(-151.7 -180.8)rotate(320.0 400 400)"><ellipse cx="400" cy="400" rx="9.6" ry="4.8" class="b"/></g>
<g transform="translate(-135.4 -193.3)rotate(325.0 400 400)"><ellipse cx="400" cy="400" rx="9.6" ry="4.8" /></g>
<g transform="translate(-118.0 -204.4)rotate(330.0 400 400)"><ellipse cx="400" cy="400" rx="9.6" ry="4.8" class="w"/></g>
<g transform="translate(-99.7 -213.9)rotate(335.0 400 400)"><ellipse cx="400" cy="400" rx="9.6" ry="4.8" /></g>
<g transform="translate(-80.7 -221.8)rotate(340.0 400 400)"><ellipse cx="400" cy="400" rx="9.6" ry="4.8" class="b"/></g>
<g transform="translate(-61.1 -228.0)rotate(345.0 400 400)"><ellipse cx="400" cy="400" rx="9.6" ry="4.8" /></g>
<g transform="translate(-41.0 -232.4)rotate(350.0 400 400)"><ellipse cx="400" cy="400" rx="9.6" ry="4.8" class="w"/></g>
<g transform="translate(-20.6 -235.1)rotate(355.0 400 400)"><ellipse cx="400" cy="400" rx="9.6" ry="4.8" /></g>
<g transform="translate(-0.0 -236.0)rotate(360.0 400 400)"><ellipse cx="400" cy="400" rx="9.6" ry="4.8" class="b"/></g>
<g transform="translate(20.6 -235.1)rotate(365.0 400 400)"><ellipse cx="400" cy="400" rx="9.6" ry="4.8" /></g>
<g transform="translate(41.0 -232.4)rotate(370.0 400 400)"><ellipse cx="400" cy="400" rx="9.6" ry="4.8" class="w"/></g>
<g transform="translate(61.1 -228.0)rotate(375.0 400 400)"><ellipse cx="400" cy="400" rx="9.6" ry="4.8" /></g>
<g transform="translate(80.7 -221.8)rotate(380.0 400 400)"><ellipse cx="400" cy="400" rx="9.6" ry="4.8" class="b"/></g>
<g transform="translate(99.7 -213.9)rotate(385.0 400 400)"><ellipse cx="400" cy="400" rx="9.6" ry="4.8" /></g>
<g transform="translate(118.0 -204.4)rotate(390.0 400 400)"><ellipse cx="400" cy="400" rx="9.6" ry="4.8" class="w"/></g>
<g transform="translate(135.4 -193.3)rotate(395.0 400 400)"><ellipse cx="400" cy="400" rx="9.6" ry="4.8" /></g>
<g transform="translate(151.7 -180.8)rotate(400.0 400 400)"><ellipse cx="400" cy="400" rx="9.6" ry="4.8" class="b"/></g>
<g transform="translate(166.9 -166.9)rotate(405.0 400 400)"><ellipse cx="400" cy="400" rx="9.6" ry="4.8" /></g>
<g transform="translate(180.8 -151.7)rotate(410.0 400 400)"><ellipse cx="400" cy="400" rx="9.6" ry="4.8" class="w"/></g>
<g transform="translate(193.3 -135.4)rotate(415.0 400 400)"><ellipse cx="400" cy="400" rx="9.6" ry="4.8" /></g>
<g transform="translate(204.4 -118.0)rotate(420.0 400 400)"><ellipse cx="400" cy="400" rx="9.6" ry="4.8" class="b"/></g>
<g transform="translate(213.9 -99.7)rotate(425.0 400 400)"><ellipse cx="400" cy="400" rx="9.6" ry="4.8" /></g>
<g transform="translate(221.8 -80.7)rotate(430.0 400 400)"><ellipse cx="400" cy="400" rx="9.6" ry="4.8" class="w"/></g>
<g transform="translate(228.0 -61.1)rotate(435.0 400 400)"><ellipse cx="400" cy="400" rx="9.6" ry="4.8" /></g>
<g transform="translate(232.4 -41.0)rotate(440.0 400 400)"><ellipse cx="400" cy="400" rx="9.6" ry="4.8" class="b"/></g>
<g transform="translate(235.1 -20.6)rotate(445.0 400 400)"><ellipse cx="400" cy="400" rx="9.6" ry="4.8" /></g>
<g transform="translate(236.0 -0.0)rotate(450.0 400 400)"><ellipse cx="400" cy="400" rx="9.6" ry="4.8" class="w"/></g>
<g transform="translate(235.1 20.6)rotate(455.0 400 400)"><ellipse cx="400" cy="400" rx="9.6" ry="4.8" /></g>
<g transform="translate(232.4 41.0)rotate(460.0 400 400)"><ellipse cx="400" cy="400" rx="9.6" ry="4.8" class="b"/></g>
<g transform="translate(228.0 61.1)rotate(465.0 400 400)"><ellipse cx="400" cy="400" rx="9.6" ry="4.8" /></g>
<g transform="translate(221.8 80.7)rotate(470.0 400 400)"><ellipse cx="400" cy="400" rx="9.6" ry="4.8" class="w"/></g>
<g transform="translate(213.9 99.7)rotate(475.0 400 400)"><ellipse cx="400" cy="400" rx="9.6" ry="4.8" /></g>
<g transform="translate(204.4 118.0)rotate(480.0 400 400)"><ellipse cx="400" cy="400" rx="9.6" ry="4.8" class="b"/></g>
<g transform="translate(193.3 135.4)rotate(485.0 400 400)"><ellipse cx="400" cy="400" rx="9.6" ry="4.8" /></g>
<g transform="translate(180.8 151.7)rotate(490.0 400 400)"><ellipse cx="400" cy="400" rx="9.6" ry="4.8" class="w"/></g>
<g transform="translate(166.9 166.9)rotate(495.0 400 400)"><ellipse cx="400" cy="400" rx="9.6" ry="4.8" /></g>
<g transform="translate(151.7 180.8)rotate(500.0 400 400)"><ellipse cx="400" cy="400" rx="9.6" ry="4.8" class="b"/></g>
<g transform="translate(135.4 193.3)rotate(505.0 400 400)"><ellipse cx="400" cy="400" rx="9.6" ry="4.8" /></g>
<g transform="translate(118.0 204.4)rotate(510.0 400 400)"><ellipse cx="400" cy="400" rx="9.6" ry="4.8" class="w"/></g>
<g transform="translate(99.7 213.9)rotate(515.0 400 400)"><ellipse cx="400" cy="400" rx="9.6" ry="4.8" /></g>
<g transform="translate(80.7 221.8)rotate(520.0 400 400)"><ellipse cx="400" cy="400" rx="9.6" ry="4.8" class="b"/></g>
<g transform="translate(61.1 228.0)rotate(525.0 400 400)"><ellipse cx="400" cy="400" rx="9.6" ry="4.8" /></g>
<g transform="translate(41.0 232.4)rotate(530.0 400 400)"><ellipse cx="400" cy="400" rx="9.6" ry="4.8" class="w"/></g>
<g transform="translate(20.6 235.1)rotate(535.0 400 400)"><ellipse cx="400" cy="400" rx="9.6" ry="4.8" /></g>
<g transform="translate(-20.2 230.3)rotate(185.0 400 400)"><ellipse cx="400" cy="400" rx="9.6" ry="4.8" class="b"/></g>
<g transform="translate(-40.1 227.7)rotate(190.0 400 400)"><ellipse cx="400" cy="400" rx="9.6" ry="4.8" /></g>
<g transform="translate(-59.8 223.3)rotate(195.0 400 400)"><ellipse cx="400" cy="400" rx="9.6" ry="4.8" class="w"/></g>
<g transform="translate(-79.1 217.3)rotate(200.0 400 400)"><ellipse cx="400" cy="400" rx="9.6" ry="4.8" /></g>
<g transform="translate(-97.7 209.5)rotate(205.0 400 400)"><ellipse cx="400" cy="400" rx="9.6" ry="4.8" class="b"/></g>
<g transform="translate(-115.6 200.2)rotate(210.0 400 400)"><ellipse cx="400" cy="400" rx="9.6" ry="4.8" /></g>
<g transform="translate(-132.6 189.4)rotate(215.0 400 400)"><ellipse cx="400" cy="400" rx="9.6" ry="4.8" class="w"/></g>
<g transform="translate(-148.6 177.1)rotate(220.0 400 400)"><ellipse cx="400" cy="400" rx="9.6" ry="4.8" /></g>
<g transform="translate(-163.5 163.5)rotate(225.0 400 400)"><ellipse cx="400" cy="400" rx="9.6" ry="4.8" class="b"/></g>
<g transform="translate(-177.1 148.6)rotate(230.0 400 400)"><ellipse cx="400" cy="400" rx="9.6" ry="4.8" /></g>
<g transform="translate(-189.4 132.6)rotate(235.0 400 400)"><ellipse cx="400" cy="400" rx="9.6" ry="4.8" class="w"/></g>
<g transform="translate(-200.2 115.6)rotate(240.0 400 400)"><ellipse cx="400" cy="400" rx="9.6" ry="4.8" /></g>
<g transform="translate(-209.5 97.7)rotate(245.0 400 400)"><ellipse cx="400" cy="400" rx="9.6" ry="4.8" class="b"/></g>
<g transform="translate(-217.3 79.1)rotate(250.0 400 400)"><ellipse cx="400" cy="400" rx="9.6" ry="4.8" /></g>
<g transform="translate(-223.3 59.8)rotate(255.0 400 400)"><ellipse cx="400" cy="400" rx="9.6" ry="4.8" class="w"/></g>
<g transform="translate(-227.7 40.1)rotate(260.0 400 400)"><ellipse cx="400" cy="400" rx="9.6" ry="4.8" /></g>
<g transform="translate(-230.3 20.2)rotate(265.0 400 400)"><ellipse cx="400" cy="400" rx="9.6" ry="4.8" class="b"/></g>
<g transform="translate(-231.2 0.0)rotate(270.0 400 400)"><ellipse cx="400" cy="400" rx="9.6" ry="4.8" /></g>
<g transform="translate(-230.3 -20.2)rotate(275.0 400 400)"><ellipse cx="400" cy="400" rx="9.6" ry="4.8" class="w"/></g>
<g transform="translate(-227.7 -40.1)rotate(280.0 400 400)"><ellipse cx="400" cy="400" rx="9.6" ry="4.8" /></g>
<g transform="translate(-223.3 -59.8)rotate(285.0 400 400)"><ellipse cx="400" cy="400" rx="9.6" ry="4.8" class="b"/></g>
<g transform="translate(-217.3 -79.1)rotate(290.0 400 400)"><ellipse cx="400" cy="400" rx="9.6" ry="4.8" /></g>
<g transform="translate(-209.5 -97.7)rotate(295.0 400 400)"><ellipse cx="400" cy="400" rx="9.6" ry="4.8" class="w"/></g>
<g transform="translate(-200.2 -115.6)rotate(300.0 400 400)"><ellipse cx="400" cy="400" rx="9.6" ry="4.8" /></g>
<g transform="translate(-189.4 -132.6)rotate(305.0 400 400)"><ellipse cx="400" cy="400" rx="9.6" ry="4.8" class="b"/></g>
<g transform="translate(-177.1 -148.6)rotate(310.0 400 400)"><ellipse cx="400" cy="400" rx="9.6" ry="4.8" /></g>
<g transform="translate(-163.5 -163.5)rotate(315.0 400 400)"><ellipse cx="400" cy="400" rx="9.6" ry="4.8" class="w"/></g>
<g transform="translate(-148.6 -177.1)rotate(320.0 400 400)"><ellipse cx="400" cy="400" rx="9.6" ry="4.8" /></g>
<g transform="translate(-132.6 -189.4)rotate(325.0 400 400)"><ellipse cx="400" cy="400" rx="9.6" ry="4.8" class="b"/></g>
<g transform="translate(-115.6 -200.2)rotate(330.0 400 400)"><ellipse cx="400" cy="400" rx="9.6" ry="4.8" /></g>
<g transform="translate(-97.7 -209.5)rotate(335.0 400 400)"><ellipse cx="400" cy="400" rx="9.6" ry="4.8" class="w"/></g>
<g transform="translate(-79.1 -217.3)rotate(340.0 400 400)"><ellipse cx="400" cy="400" rx="9.6" ry="4.8" /></g>
<g transform="translate(-59.8 -223.3)rotate(345.0 400 400)"><ellipse cx="400" cy="400" rx="9.6" ry="4.8" class="b"/></g>
<g transform="translate(-40.1 -227.7)rotate(350.0 400 400)"><ellipse cx="400" cy="400" rx="9.6" ry="4.8" /></g>
<g transform="translate(-20.2 -230.3)rotate(355.0 400 400)"><ellipse cx="400" cy="400" rx="9.6" ry="4.8" class="w"/></g>
<g transform="translate(-0.0 -231.2)rotate(360.0 400 400)"><ellipse cx="400" cy="400" rx="9.6" ry="4.8" /></g>
<g transform="translate(20.2 -230.3)rotate(365.0 400 400)"><ellipse cx="400" cy="400" rx="9.6" ry="4.8" class="w"/></g>
<g transform="translate(40.1 -227.7)rotate(370.0 400 400)"><ellipse cx="400" cy="400" rx="9.6" ry="4.8" /></g>
<g transform="translate(59.8 -223.3)rotate(375.0 400 400)"><ellipse cx="400" cy="400" rx="9.6" ry="4.8" class="b"/></g>
<g transform="translate(79.1 -217.3)rotate(380.0 400 400)"><ellipse cx="400" cy="400" rx="9.6" ry="4.8" /></g>
<g transform="translate(97.7 -209.5)rotate(385.0 400 400)"><ellipse cx="400" cy="400" rx="9.6" ry="4.8" class="w"/></g>
<g transform="translate(115.6 -200.2)rotate(390.0 400 400)"><ellipse cx="400" cy="400" rx="9.6" ry="4.8" /></g>
<g transform="translate(132.6 -189.4)rotate(395.0 400 400)"><ellipse cx="400" cy="400" rx="9.6" ry="4.8" class="b"/></g>
<g transform="translate(148.6 -177.1)rotate(400.0 400 400)"><ellipse cx="400" cy="400" rx="9.6" ry="4.8" /></g>
<g transform="translate(163.5 -163.5)rotate(405.0 400 400)"><ellipse cx="400" cy="400" rx="9.6" ry="4.8" class="w"/></g>
<g transform="translate(177.1 -148.6)rotate(410.0 400 400)"><ellipse cx="400" cy="400" rx="9.6" ry="4.8" /></g>
<g transform="translate(189.4 -132.6)rotate(415.0 400 400)"><ellipse cx="400" cy="400" rx="9.6" ry="4.8" class="b"/></g>
<g transform="translate(200.2 -115.6)rotate(420.0 400 400)"><ellipse cx="400" cy="400" rx="9.6" ry="4.8" /></g>
<g transform="translate(209.5 -97.7)rotate(425.0 400 400)"><ellipse cx="400" cy="400" rx="9.6" ry="4.8" class="w"/></g>
<g transform="translate(217.3 -79.1)rotate(430.0 400 400)"><ellipse cx="400" cy="400" rx="9.6" ry="4.8" /></g>
<g transform="translate(223.3 -59.8)rotate(435.0 400 400)"><ellipse cx="400" cy="400" rx="9.6" ry="4.8" class="b"/></g>
<g transform="translate(227.7 -40.1)rotate(440.0 400 400)"><ellipse cx="400" cy="400" rx="9.6" ry="4.8" /></g>
<g transform="translate(230.3 -20.2)rotate(445.0 400 400)"><ellipse cx="400" cy="400" rx="9.6" ry="4.8" class="w"/></g>
<g transform="translate(231.2 -0.0)rotate(450.0 400 400)"><ellipse cx="400" cy="400" rx="9.6" ry="4.8" /></g>
<g transform="translate(230.3 20.2)rotate(455.0 400 400)"><ellipse cx="400" cy="400" rx="9.6" ry="4.8" class="b"/></g>
<g transform="translate(227.7 40.1)rotate(460.0 400 400)"><ellipse cx="400" cy="400" rx="9.6" ry="4.8" /></g>
<g transform="translate(223.3 59.8)rotate(465.0 400 400)"><ellipse cx="400" cy="400" rx="9.6" ry="4.8" class="w"/></g>
<g transform="translate(217.3 79.1)rotate(470.0 400 400)"><ellipse cx="400" cy="400" rx="9.6" ry="4.8" /></g>
<g transform="translate(209.5 97.7)rotate(475.0 400 400)"><ellipse cx="400" cy="400" rx="9.6" ry="4.8" class="b"/></g>
<g transform="translate(200.2 115.6)rotate(480.0 400 400)"><ellipse cx="400" cy="400" rx="9.6" ry="4.8" /></g>
<g transform="translate(189.4 132.6)rotate(485.0 400 400)"><ellipse cx="400" cy="400" rx="9.6" ry="4.8" class="w"/></g>
<g transform="translate(177.1 148.6)rotate(490.0 400 400)"><ellipse cx="400" cy="400" rx="9.6" ry="4.8" /></g>
<g transform="translate(163.5 163.5)rotate(495.0 400 400)"><ellipse cx="400" cy="400" rx="9.6" ry="4.8" class="b"/></g>
<g transform="translate(148.6 177.1)rotate(500.0 400 400)"><ellipse cx="400" cy="400" rx="9.6" ry="4.8" /></g>
<g transform="translate(132.6 189.4)rotate(505.0 400 400)"><ellipse cx="400" cy="400" rx="9.6" ry="4.8" class="w"/></g>
<g transform="translate(115.6 200.2)rotate(510.0 400 400)"><ellipse cx="400" cy="400" rx="9.6" ry="4.8" /></g>
<g transform="translate(97.7 209.5)rotate(515.0 400 400)"><ellipse cx="400" cy="400" rx="9.6" ry="4.8" class="b"/></g>
<g transform="translate(79.1 217.3)rotate(520.0 400 400)"><ellipse cx="400" cy="400" rx="9.6" ry="4.8" /></g>
<g transform="translate(59.8 223.3)rotate(525.0 400 400)"><ellipse cx="400" cy="400" rx="9.6" ry="4.8" class="w"/></g>
<g transform="translate(40.1 227.7)rotate(530.0 400 400)"><ellipse cx="400" cy="400" rx="9.6" ry="4.8" /></g>
<g transform="translate(20.2 230.3)rotate(535.0 400 400)"><ellipse cx="400" cy="400" rx="9.6" ry="4.8" class="b"/></g>
<g transform="translate(0.0 231.2)rotate(540.0 400 400)"><ellipse cx="400" cy="400" rx="9.6" ry="4.8" /></g>
<g transform="translate(-21.0 239.9)rotate(185.0 400 400)"><ellipse cx="400" cy="400" rx="9.6" ry="4.8" class="w"/></g>
<g transform="translate(-41.8 237.1)rotate(190.0 400 400)"><ellipse cx="400" cy="400" rx="9.6" ry="4.8" /></g>
<g transform="translate(-62.3 232.6)rotate(195.0 400 400)"><ellipse cx="400" cy="400" rx="9.6" ry="4.8" class="b"/></g>
<g transform="translate(-82.4 226.3)rotate(200.0 400 400)"><ellipse cx="400" cy="400" rx="9.6" ry="4.8" /></g>
<g transform="translate(-101.8 218.2)rotate(205.0 400 400)"><ellipse cx="400" cy="400" rx="9.6" ry="4.8" class="w"/></g>
<g transform="translate(-120.4 208.5)rotate(210.0 400 400)"><ellipse cx="400" cy="400" rx="9.6" ry="4.8" /></g>
<g transform="translate(-138.1 197.3)rotate(215.0 400 400)"><ellipse cx="400" cy="400" rx="9.6" ry="4.8" class="b"/></g>
<g transform="translate(-154.8 184.5)rotate(220.0 400 400)"><ellipse cx="400" cy="400" rx="9.6" ry="4.8" /></g>
<g transform="translate(-170.3 170.3)rotate(225.0 400 400)"><ellipse cx="400" cy="400" rx="9.6" ry="4.8" class="w"/></g>
<g transform="translate(-184.5 154.8)rotate(230.0 400 400)"><ellipse cx="400" cy="400" rx="9.6" ry="4.8" /></g>
<g transform="translate(-197.3 138.1)rotate(235.0 400 400)"><ellipse cx="400" cy="400" rx="9.6" ry="4.8" class="b"/></g>
<g transform="translate(-208.5 120.4)rotate(240.0 400 400)"><ellipse cx="400" cy="400" rx="9.6" ry="4.8" /></g>
<g transform="translate(-218.2 101.8)rotate(245.0 400 400)"><ellipse cx="400" cy="400" rx="9.6" ry="4.8" class="w"/></g>
<g transform="translate(-226.3 82.4)rotate(250.0 400 400)"><ellipse cx="400" cy="400" rx="9.6" ry="4.8" /></g>
<g transform="translate(-232.6 62.3)rotate(255.0 400 400)"><ellipse cx="400" cy="400" rx="9.6" ry="4.8" class="b"/></g>
<g transform="translate(-237.1 41.8)rotate(260.0 400 400)"><ellipse cx="400" cy="400" rx="9.6" ry="4.8" /></g>
<g transform="translate(-239.9 21.0)rotate(265.0 400 400)"><ellipse cx="400" cy="400" rx="9.6" ry="4.8" class="w"/></g>
<g transform="translate(-240.8 0.0)rotate(270.0 400 400)"><ellipse cx="400" cy="400" rx="9.6" ry="4.8" /></g>
<g transform="translate(-239.9 -21.0)rotate(275.0 400 400)"><ellipse cx="400" cy="400" rx="9.6" ry="4.8" class="b"/></g>
<g transform="translate(-237.1 -41.8)rotate(280.0 400 400)"><ellipse cx="400" cy="400" rx="9.6" ry="4.8" /></g>
<g transform="translate(-232.6 -62.3)rotate(285.0 400 400)"><ellipse cx="400" cy="400" rx="9.6" ry="4.8" class="w"/></g>
<g transform="translate(-226.3 -82.4)rotate(290.0 400 400)"><ellipse cx="400" cy="400" rx="9.6" ry="4.8" /></g>
<g transform="translate(-218.2 -101.8)rotate(295.0 400 400)"><ellipse cx="400" cy="400" rx="9.6" ry="4.8" class="b"/></g>
<g transform="translate(-208.5 -120.4)rotate(300.0 400 400)"><ellipse cx="400" cy="400" rx="9.6" ry="4.8" /></g>
<g transform="translate(-197.3 -138.1)rotate(305.0 400 400)"><ellipse cx="400" cy="400" rx="9.6" ry="4.8" class="w"/></g>
<g transform="translate(-184.5 -154.8)rotate(310.0 400 400)"><ellipse cx="400" cy="400" rx="9.6" ry="4.8" /></g>
<g transform="translate(-170.3 -170.3)rotate(315.0 400 400)"><ellipse cx="400" cy="400" rx="9.6" ry="4.8" class="b"/></g>
<g transform="translate(-154.8 -184.5)rotate(320.0 400 400)"><ellipse cx="400" cy="400" rx="9.6" ry="4.8" /></g>
<g transform="translate(-138.1 -197.3)rotate(325.0 400 400)"><ellipse cx="400" cy="400" rx="9.6" ry="4.8" class="w"/></g>
<g transform="translate(-120.4 -208.5)rotate(330.0 400 400)"><ellipse cx="400" cy="400" rx="9.6" ry="4.8" /></g>
<g transform="translate(-101.8 -218.2)rotate(335.0 400 400)"><ellipse cx="400" cy="400" rx="9.6" ry="4.8" class="b"/></g>
<g transform="translate(-82.4 -226.3)rotate(340.0 400 400)"><ellipse cx="400" cy="400" rx="9.6" ry="4.8" /></g>
<g transform="translate(-62.3 -232.6)rotate(345.0 400 400)"><ellipse cx="400" cy="400" rx="9.6" ry="4.8" class="w"/></g>
<g transform="translate(-41.8 -237.1)rotate(350.0 400 400)"><ellipse cx="400" cy="400" rx="9.6" ry="4.8" /></g>
<g transform="translate(-21.0 -239.9)rotate(355.0 400 400)"><ellipse cx="400" cy="400" rx="9.6" ry="4.8" class="b"/></g>
<g transform="translate(-0.0 -240.8)rotate(360.0 400 400)"><ellipse cx="400" cy="400" rx="9.6" ry="4.8" /></g>
<g transform="translate(21.0 -239.9)rotate(365.0 400 400)"><ellipse cx="400" cy="400" rx="9.6" ry="4.8" class="b"/></g>
<g transform="translate(41.8 -237.1)rotate(370.0 400 400)"><ellipse cx="400" cy="400" rx="9.6" ry="4.8" /></g>
<g transform="translate(62.3 -232.6)rotate(375.0 400 400)"><ellipse cx="400" cy="400" rx="9.6" ry="4.8" class="w"/></g>
<g transform="translate(82.4 -226.3)rotate(380.0 400 400)"><ellipse cx="400" cy="400" rx="9.6" ry="4.8" /></g>
<g transform="translate(101.8 -218.2)rotate(385.0 400 400)"><ellipse cx="400" cy="400" rx="9.6" ry="4.8" class="b"/></g>
<g transform="translate(120.4 -208.5)rotate(390.0 400 400)"><ellipse cx="400" cy="400" rx="9.6" ry="4.8" /></g>
<g transform="translate(138.1 -197.3)rotate(395.0 400 400)"><ellipse cx="400" cy="400" rx="9.6" ry="4.8" class="w"/></g>
<g transform="translate(154.8 -184.5)rotate(400.0 400 400)"><ellipse cx="400" cy="400" rx="9.6" ry="4.8" /></g>
<g transform="translate(170.3 -170.3)rotate(405.0 400 400)"><ellipse cx="400" cy="400" rx="9.6" ry="4.8" class="b"/></g>
<g transform="translate(184.5 -154.8)rotate(410.0 400 400)"><ellipse cx="400" cy="400" rx="9.6" ry="4.8" /></g>
<g transform="translate(197.3 -138.1)rotate(415.0 400 400)"><ellipse cx="400" cy="400" rx="9.6" ry="4.8" class="w"/></g>
<g transform="translate(208.5 -120.4)rotate(420.0 400 400)"><ellipse cx="400" cy="400" rx="9.6" ry="4.8" /></g>
<g transform="translate(218.2 -101.8)rotate(425.0 400 400)"><ellipse cx="400" cy="400" rx="9.6" ry="4.8" class="b"/></g>
<g transform="translate(226.3 -82.4)rotate(430.0 400 400)"><ellipse cx="400" cy="400" rx="9.6" ry="4.8" /></g>
<g transform="translate(232.6 -62.3)rotate(435.0 400 400)"><ellipse cx="400" cy="400" rx="9.6" ry="4.8" class="w"/></g>
<g transform="translate(237.1 -41.8)rotate(440.0 400 400)"><ellipse cx="400" cy="400" rx="9.6" ry="4.8" /></g>
<g transform="translate(239.9 -21.0)rotate(445.0 400 400)"><ellipse cx="400" cy="400" rx="9.6" ry="4.8" class="b"/></g>
<g transform="translate(240.8 -0.0)rotate(450.0 400 400)"><ellipse cx="400" cy="400" rx="9.6" ry="4.8" /></g>
<g transform="translate(239.9 21.0)rotate(455.0 400 400)"><ellipse cx="400" cy="400" rx="9.6" ry="4.8" class="w"/></g>
<g transform="translate(237.1 41.8)rotate(460.0 400 400)"><ellipse cx="400" cy="400" rx="9.6" ry="4.8" /></g>
<g transform="translate(232.6 62.3)rotate(465.0 400 400)"><ellipse cx="400" cy="400" rx="9.6" ry="4.8" class="b"/></g>
<g transform="translate(226.3 82.4)rotate(470.0 400 400)"><ellipse cx="400" cy="400" rx="9.6" ry="4.8" /></g>
<g transform="translate(218.2 101.8)rotate(475.0 400 400)"><ellipse cx="400" cy="400" rx="9.6" ry="4.8" class="w"/></g>
<g transform="translate(208.5 120.4)rotate(480.0 400 400)"><ellipse cx="400" cy="400" rx="9.6" ry="4.8" /></g>
<g transform="translate(197.3 138.1)rotate(485.0 400 400)"><ellipse cx="400" cy="400" rx="9.6" ry="4.8" class="b"/></g>
<g transform="translate(184.5 154.8)rotate(490.0 400 400)"><ellipse cx="400" cy="400" rx="9.6" ry="4.8" /></g>
<g transform="translate(170.3 170.3)rotate(495.0 400 400)"><ellipse cx="400" cy="400" rx="9.6" ry="4.8" class="w"/></g>
<g transform="translate(154.8 184.5)rotate(500.0 400 400)"><ellipse cx="400" cy="400" rx="9.6" ry="4.8" /></g>
<g transform="translate(138.1 197.3)rotate(505.0 400 400)"><ellipse cx="400" cy="400" rx="9.6" ry="4.8" class="b"/></g>
<g transform="translate(120.4 208.5)rotate(510.0 400 400)"><ellipse cx="400" cy="400" rx="9.6" ry="4.8" /></g>
<g transform="translate(101.8 218.2)rotate(515.0 400 400)"><ellipse cx="400" cy="400" rx="9.6" ry="4.8" class="w"/></g>
<g transform="translate(82.4 226.3)rotate(520.0 400 400)"><ellipse cx="400" cy="400" rx="9.6" ry="4.8" /></g>
<g transform="translate(62.3 232.6)rotate(525.0 400 400)"><ellipse cx="400" cy="400" rx="9.6" ry="4.8" class="b"/></g>
<g transform="translate(41.8 237.1)rotate(530.0 400 400)"><ellipse cx="400" cy="400" rx="9.6" ry="4.8" /></g>
<g transform="translate(21.0 239.9)rotate(535.0 400 400)"><ellipse cx="400" cy="400" rx="9.6" ry="4.8" class="w"/></g>
<g transform="translate(0.0 240.8)rotate(540.0 400 400)"><ellipse cx="400" cy="400" rx="9.6" ry="4.8" /></g>
</svg>
