<?xml version="1.0" encoding="UTF-8"?>
<svg width="800" height="800" viewBox="0 0 800 800" xmlns="http://www.w3.org/2000/svg">
<!-- Created by Ian Parberry -->
<style>ellipse{fill:none;stroke-width:3}ellipse.b{cx:400;cy:400;stroke:none;fill:black;}ellipse.w{cx:400;cy:400;stroke:none;fill:white;}</style>
<rect width="800" height="800" style="fill:gray"/>
<g transform="translate(-0.0 236.0)rotate(180.0 400 400)"><ellipse cx="400" cy="400" rx="9.6" ry="4.8" class="b"/></g>
<g transform="translate(-20.6 235.1)rotate(185.0 400 400)"><ellipse cx="400" cy="400" rx="9.6" ry="4.8" /></g>
<g transform="translate(-41.0 232.4)rotate(190.0 400 400)"><ellipse cx="400" cy="400" rx="9.6" ry="4.8" class="w"/></g>
<g transform="translate(-61.1 228.0)rotate(195.0 400 400)"><ellipse cx="400" cy="400" rx="9.6" ry="4.8" /></g>
<g transform="translate(-80.7 221.8)rotate(200.0 400 400)"><ellipse cx="400" cy="400" rx="9.6" ry="4.8" class="b"/></g>
<g transform="translate(-99.7 213.9)rotate(205.0 400 400)"><ellipse cx="400" cy="400" rx="9.6" ry="4.8" /></g>
<g transform="translate(-118.0 204.4)rotate(210.0 400 400)"><ellipse cx="400" cy="400" rx="9.6" ry="4.8" class="w"/></g>
<g transform="translate(-135.4 193.3)rotate(215.0 400 400)"><ellipse cx="400" cy="400" rx="9.6" ry="4.8" /></g>
<g transform="translate(-151.7 180.8)rotate(220.0 400 400)"><ellipse cx="400" cy="400" rx="9.6" ry="4.8" class="b"/></g>
<g transform="translate(-166.9 166.9)rotate(225.0 400 400)"><ellipse cx="400" cy="400" rx="9.6" ry="4.8" /></g>
<g transform="translate(-180.8 151.7)rotate(230.0 400 400)"><ellipse cx="400" cy="400" rx="9.6" ry="4.8" class="w"/></g>
<g transform="translate(-193.3 135.4)rotate(235.0 400 400)"><ellipse cx="400" cy="400" rx="9.6" ry="4.8" /></g>
<g transform="translate(-204.4 118.0)rotate(240.0 400 400)"><ellipse cx="400" cy="400" rx="9.6" ry="4.8" class="b"/></g>
<g transform="translate(-213.9 99.7)rotate(245.0 400 400)"><ellipse cx="400" cy="400" rx="9.6" ry="4.8" /></g>
<g transform="translate(-221.8 80.7)rotate(250.0 400 400)"><ellipse cx="400" cy="400" rx="9.6" ry="4.8" class="w"/></g>
<g transform="translate(-228.0 61.1)rotate(255.0 400 400)"><ellipse cx="400" cy="400" rx="9.6" ry="4.8" /></g>
<g transform="translate(-232.4 41.0)rotate(260.0 400 400)"><ellipse cx="400" cy="400" rx="9.6" ry="4.8" class="b"/></g>
<g transform="translate(-235.1 20.6)rotate(265.0 400 400)"><ellipse cx="400" cy="400" rx="9.6" ry="4.8" /></g>
<g transform="translate(-236.0 0.0)rotate(270.0 400 400)"><ellipse cx="400" cy="400" rx="9.6" ry="4.8" class="w"/></g>
<g transform="translate(-235.1 -20.6)rotate(275.0 400 400)"><ellipse cx="400" cy="400" rx="9.6" ry="4.8" /></g>
<g transform="translate(-232.4 -41.0)rotate(280.0 400 400)"><ellipse cx="400" cy="400" rx="9.6" ry="4.8" class="b"/></g>
<g transform="translate(-228.0 -61.1)rotate(285.0 400 400)"><ellipse cx="400" cy="400" rx="9.6" ry="4.8" /></g>
<g transform="translate(-221.8 -80.7)rotate(290.0 400 400)"><ellipse cx="400" cy="400" rx="9.6" ry="4.8" class="w"/></g>
<g transform="translate(-213.9 -99.7)rotate(295.0 400 400)"><ellipse cx="400" cy="400" rx="9.6" ry="4.8" /></g>
<g transform="translate(-204.4 -118.0)rotate(300.0 400 400)"><ellipse cx="400" cy="400" rx="9.6" ry="4.8" class="b"/></g>
<g transform="translate(-193.3 -135.4)rotate(305.0 400 400)"><ellipse cx="400" cy="400" rx="9.6" ry="4.8" /></g>
<g transform="translate(-180.8 -151.7)rotate(310.0 400 400)"><ellipse cx="400" cy="400" rx="9.6" ry="4.8" class="w"/></g>
<g transform="translate(-166.9 -166.9)rotate(315.0 400 400)"><ellipse cx="400" cy="400" rx="9.6" ry="4.8" /></g>
<g transform="translate(-151.7 -180.8)rotate(320.0 400 400)"><ellipse cx="400" cy="400" rx="9.6" ry="4.8" class="b"/></g>
<g transform="translate(-135.4 -193.3)rotate(325.0 400 400)"><ellipse cx="400" cy="400" rx="9.6" ry="4.8" /></g>
<g transform="translate(-118.0 -204.4)rotate(330.0 400 400)"><ellipse cx="400" cy="400" rx="9.6" ry="4.8" class="w"/></g>
<g transform="translate(-99.7 -213.9)rotate(335.0 400 400)"><ellipse cx="400" cy="400" rx="9.6" ry="4.8" /></g>
<g transform="translate(-80.7 -221.8)rotate(340.0 400 400)"><ellipse cx="400" cy="400" rx="9.6" ry="4.8" class="b"/></g>
<g transform="translate(-61.1 -228.0)rotate(345.0 400 400)"><ellipse cx="400" cy="400" rx="9.6" ry="4.8" /></g>
<g transform="translate(-41.0 -232.4)rotate(350.0 400 400)"><ellipse cx="400" cy="400" rx="9.6" ry="4.8" class="w"/></g>
<g transform="translate(-20.6 -235.1)rotate(355.0 400 400)"><ellipse cx="400" cy="400" rx="9.6" ry="4.8" /></g>
<g transform="translate(-0.0 -236.0)rotate(360.0 400 400)"><ellipse cx="400" cy="400" rx="9.6" ry="4.8" class="b"/></g>
<g transform="translate(20.6 -235.1)rotate(365.0 400 400)"><ellipse cx="400" cy="400" rx="9.6" ry="4.8" /></g>
<g transform="translate(41.0 -232.4)rotate(370.0 400 400)"><ellipse cx="400" cy="400" rx="9.6" ry="4.8" class="w"/></g>
<g transform="translate(61.1 -228.0)rotate(375.0 400 400)"><ellipse cx="400" cy="400" rx="9.6" ry="4.8" /></g>
<g transform="translate(80.7 -221.8)rotate(380.0 400 400)"><ellipse cx="400" cy="400" rx="9.6" ry="4.8" class="b"/></g>
<g transform="translate(99.7 -213.9)rotate(385.0 400 400)"><ellipse cx="400" cy="400" rx="9.6" ry="4.8" /></g>
<g transform="translate(118.0 -204.4)rotate(390.0 400 400)"><ellipse cx="400" cy="400" rx="9.6" ry="4.8" class="w"/></g>
<g transform="translate(135.4 -193.3)rotate(395.0 400 400)"><ellipse cx="400" cy="400" rx="9.6" ry="4.8" /></g>
<g transform="translate(151.7 -180.8)rotate(400.0 400 400)"><ellipse cx="400" cy="400" rx="9.6" ry="4.8" class="b"/></g>
<g transform="translate(166.9 -166.9)rotate(405.0 400 400)"><ellipse cx="400" cy="400" rx="9.6" ry="4.8" /></g>
<g transform="translate(180.8 -151.7)rotate(410.0 400 400)"><ellipse cx="400" cy="400" rx="9.6" ry="4.8" class="w"/></g>
<g transform="translate(193.3 -135.4)rotate(415.0 400 400)"><ellipse cx="400" cy="400" rx="9.6" ry="4.8" /></g>
<g transform="translate(204.4 -118.0)rotate(420.0 400 400)"><ellipse cx="400" cy="400" rx="9.6" ry="4.8" class="b"/></g>
<g transform="translate(213.9 -99.7)rotate(425.0 400 400)"><ellipse cx="400" cy="400" rx="9.6" ry="4.8" /></g>
<g transform="translate(221.8 -80.7)rotate(430.0 400 400)"><ellipse cx="400" cy="400" rx="9.6" ry="4.8" class="w"/></g>
<g transform="translate(228.0 -61.1)rotate(435.0 400 400)"><ellipse cx="400" cy="400" rx="9.6" ry="4.8" /></g>
<g transform="translate(232.4 -41.0)rotate(440.0 400 400)"><ellipse cx="400" cy="400" rx="9.6" ry="4.8" class="b"/></g>
<g transform="translate(235.1 -20.6)rotate(445.0 400 400)"><ellipse cx="400" cy="400" rx="9.6" ry="4.8" /></g>
<g transform="translate(236.0 -0.0)rotate(450.0 400 400)"><ellipse cx="400" cy="400" rx="9.6" ry="4.8" class="w"/></g>
<g transform="translate(235.1 20.6)rotate(455.0 400 400)"><ellipse cx="400" cy="400" rx="9.6" ry="4.8" /></g>
<g transform="translate(232.4 41.0)rotate(460.0 400 400)"><ellipse cx="400" cy="400" rx="9.6" ry="4.8" class="b"/></g>
<g transform="translate(228.0 61.1)rotate(465.0 400 400)"><ellipse cx="400" cy="400" rx="9.6" ry="4.8" /></g>
<g transform="translate(221.8 80.7)rotate(470.0 400 400)"><ellipse cx="400" cy="400" rx="9.6" ry="4.8" class="w"/></g>
<g transform="translate(213.9 99.7)rotate(475.0 400 400)"><ellipse cx="400" cy="400" rx="9.6" ry="4.8" /></g>
<g transform="translate(204.4 118.0)rotate(480.0 400 400)"><ellipse cx="400" cy="400" rx="9.6" ry="4.8" class="b"/></g>
<g transform="translate(193.3 135.4)rotate(485.0 400 400)"><ellipse cx="400" cy="400" rx="9.6" ry="4.8" /></g>
<g transform="translate(180.8 151.7)rotate(490.0 400 400)"><ellipse cx="400" cy="400" rx="9.6" ry="4.8" class="w"/></g>
<g transform="translate(166.9 166.9)rotate(495.0 400 400)"><ellipse cx="400" cy="400" rx="9.6" ry="4.8" /></g>
<g transform="translate(151.7 180.8)rotate(500.0 400 400)"><ellipse cx="400" cy="400" rx="9.6" ry="4.8" class="b"/></g>
<g transform="translate(135.4 193.3)rotate(505.0 400 400)"><ellipse cx="400" cy="400" rx="9.6" ry="4.8" /></g>
<g transform="translate(118.0 204.4)rotate(510.0 400 400)"><ellipse cx="400" cy="400" rx="9.6" ry="4.8" class="w"/></g>
<g transform="translate(99.7 213.9)rotate(515.0 400 400)"><ellipse cx="400" cy="400" rx="9.6" ry="4.8" /></g>
<g transform="translate(80.7 221.8)rotate(520.0 400 400)"><ellipse cx="400" cy="400" rx="9.6" ry="4.8" class="b"/></g>
<g transform="translate(61.1 228.0)rotate(525.0 400 400)"><ellipse cx="400" cy="400" rx="9.6" ry="4.8" /></g>
<g transform="translate(41.0 232.4)rotate(530.0 400 400)"><ellipse cx="400" cy="400" rx="9.6" ry="4.8" class="w"/></g>
<g transform="translate(20.6 235.1)rotate(535.0 400 400)"><ellipse cx="400" cy="400" rx="9.6" ry="4.8" /></g>
</svg>
