<?xml version="1.0" encoding="UTF-8"?>
<svg width="800" height="800" viewBox="0 0 800 800" xmlns="http://www.w3.org/2000/svg">
<!-- Created by Ian Parberry -->
<style>ellipse{fill:none;stroke-width:3}ellipse.b{cx:400;cy:400;stroke:none;fill:black;}ellipse.w{cx:400;cy:400;stroke:none;fill:white;}</style>
<rect width="800" height="800" style="fill:gray"/>
<g transform="translate(-21.0 239.9)rotate(185.0 400 400)"><ellipse cx="400" cy="400" rx="9.6" ry="4.8" class="w"/></g>
<g transform="translate(-41.8 237.1)rotate(190.0 400 400)"><ellipse cx="400" cy="400" rx="9.6" ry="4.8" /></g>
<g transform="translate(-62.3 232.6)rotate(195.0 400 400)"><ellipse cx="400" cy="400" rx="9.6" ry="4.8" class="b"/></g>
<g transform="translate(-82.4 226.3)rotate(200.0 400 400)"><ellipse cx="400" cy="400" rx="9.6" ry="4.8" /></g>
<g transform="translate(-101.8 218.2)rotate(205.0 400 400)"><ellipse cx="400" cy="400" rx="9.6" ry="4.8" class="w"/></g>
<g transform="translate(-120.4 208.5)rotate(210.0 400 400)"><ellipse cx="400" cy="400" rx="9.6" ry="4.8" /></g>
<g transform="translate(-138.1 197.3)rotate(215.0 400 400)"><ellipse cx="400" cy="400" rx="9.6" ry="4.8" class="b"/></g>
<g transform="translate(-154.8 184.5)rotate(220.0 400 400)"><ellipse cx="400" cy="400" rx="9.6" ry="4.8" /></g>
<g transform="translate(-170.3 170.3)rotate(225.0 400 400)"><ellipse cx="400" cy="400" rx="9.6" ry="4.8" class="w"/></g>
<g transform="translate(-184.5 154.8)rotate(230.0 400 400)"><ellipse cx="400" cy="400" rx="9.6" ry="4.8" /></g>
<g transform="translate(-197.3 138.1)rotate(235.0 400 400)"><ellipse cx="400" cy="400" rx="9.6" ry="4.8" class="b"/></g>
<g transform="translate(-208.5 120.4)rotate(240.0 400 400)"><ellipse cx="400" cy="400" rx="9.6" ry="4.8" /></g>
<g transform="translate(-218.2 101.8)rotate(245.0 400 400)"><ellipse cx="400" cy="400" rx="9.6" ry="4.8" class="w"/></g>
<g transform="translate(-226.3 82.4)rotate(250.0 400 400)"><ellipse cx="400" cy="400" rx="9.6" ry="4.8" /></g>
<g transform="translate(-232.6 62.3)rotate(255.0 400 400)"><ellipse cx="400" cy="400" rx="9.6" ry="4.8" class="b"/></g>
<g transform="translate(-237.1 41.8)rotate(260.0 400 400)"><ellipse cx="400" cy="400" rx="9.6" ry="4.8" /></g>
<g transform="translate(-239.9 21.0)rotate(265.0 400 400)"><ellipse cx="400" cy="400" rx="9.6" ry="4.8" class="w"/></g>
<g transform="translate(-240.8 0.0)rotate(270.0 400 400)"><ellipse cx="400" cy="400" rx="9.6" ry="4.8" /></g>
<g transform="translate(-239.9 -21.0)rotate(275.0 400 400)"><ellipse cx="400" cy="400" rx="9.6" ry="4.8" class="b"/></g>
<g transform="translate(-237.1 -41.8)rotate(280.0 400 400)"><ellipse cx="400" cy="400" rx="9.6" ry="4.8" /></g>
<g transform="translate(-232.6 -62.3)rotate(285.0 400 400)"><ellipse cx="400" cy="400" rx="9.6" ry="4.8" class="w"/></g>
<g transform="translate(-226.3 -82.4)rotate(290.0 400 400)"><ellipse cx="400" cy="400" rx="9.6" ry="4.8" /></g>
<g transform="translate(-218.2 -101.8)rotate(295.0 400 400)"><ellipse cx="400" cy="400" rx="9.6" ry="4.8" class="b"/></g>
<g transform="translate(-208.5 -120.4)rotate(300.0 400 400)"><ellipse cx="400" cy="400" rx="9.6" ry="4.8" /></g>
<g transform="translate(-197.3 -138.1)rotate(305.0 400 400)"><ellipse cx="400" cy="400" rx="9.6" ry="4.8" class="w"/></g>
<g transform="translate(-184.5 -154.8)rotate(310.0 400 400)"><ellipse cx="400" cy="400" rx="9.6" ry="4.8" /></g>
<g transform="translate(-170.3 -170.3)rotate(315.0 400 400)"><ellipse cx="400" cy="400" rx="9.6" ry="4.8" class="b"/></g>
<g transform="translate(-154.8 -184.5)rotate(320.0 400 400)"><ellipse cx="400" cy="400" rx="9.6" ry="4.8" /></g>
<g transform="translate(-138.1 -197.3)rotate(325.0 400 400)"><ellipse cx="400" cy="400" rx="9.6" ry="4.8" class="w"/></g>
<g transform="translate(-120.4 -208.5)rotate(330.0 400 400)"><ellipse cx="400" cy="400" rx="9.6" ry="4.8" /></g>
<g transform="translate(-101.8 -218.2)rotate(335.0 400 400)"><ellipse cx="400" cy="400" rx="9.6" ry="4.8" class="b"/></g>
<g transform="translate(-82.4 -226.3)rotate(340.0 400 400)"><ellipse cx="400" cy="400" rx="9.6" ry="4.8" /></g>
<g transform="translate(-62.3 -232.6)rotate(345.0 400 400)"><ellipse cx="400" cy="400" rx="9.6" ry="4.8" class="w"/></g>
<g transform="translate(-41.8 -237.1)rotate(350.0 400 400)"><ellipse cx="400" cy="400" rx="9.6" ry="4.8" /></g>
<g transform="translate(-21.0 -239.9)rotate(355.0 400 400)"><ellipse cx="400" cy="400" rx="9.6" ry="4.8" class="b"/></g>
<g transform="translate(-0.0 -240.8)rotate(360.0 400 400)"><ellipse cx="400" cy="400" rx="9.6" ry="4.8" /></g>
<g transform="translate(21.0 -239.9)rotate(365.0 400 400)"><ellipse cx="400" cy="400" rx="9.6" ry="4.8" class="b"/></g>
<g transform="translate(41.8 -237.1)rotate(370.0 400 400)"><ellipse cx="400" cy="400" rx="9.6" ry="4.8" /></g>
<g transform="translate(62.3 -232.6)rotate(375.0 400 400)"><ellipse cx="400" cy="400" rx="9.6" ry="4.8" class="w"/></g>
<g transform="translate(82.4 -226.3)rotate(380.0 400 400)"><ellipse cx="400" cy="400" rx="9.6" ry="4.8" /></g>
<g transform="translate(101.8 -218.2)rotate(385.0 400 400)"><ellipse cx="400" cy="400" rx="9.6" ry="4.8" class="b"/></g>
<g transform="translate(120.4 -208.5)rotate(390.0 400 400)"><ellipse cx="400" cy="400" rx="9.6" ry="4.8" /></g>
<g transform="translate(138.1 -197.3)rotate(395.0 400 400)"><ellipse cx="400" cy="400" rx="9.6" ry="4.8" class="w"/></g>
<g transform="translate(154.8 -184.5)rotate(400.0 400 400)"><ellipse cx="400" cy="400" rx="9.6" ry="4.8" /></g>
<g transform="translate(170.3 -170.3)rotate(405.0 400 400)"><ellipse cx="400" cy="400" rx="9.6" ry="4.8" class="b"/></g>
<g transform="translate(184.5 -154.8)rotate(410.0 400 400)"><ellipse cx="400" cy="400" rx="9.6" ry="4.8" /></g>
<g transform="translate(197.3 -138.1)rotate(415.0 400 400)"><ellipse cx="400" cy="400" rx="9.6" ry="4.8" class="w"/></g>
<g transform="translate(208.5 -120.4)rotate(420.0 400 400)"><ellipse cx="400" cy="400" rx="9.6" ry="4.8" /></g>
<g transform="translate(218.2 -101.8)rotate(425.0 400 400)"><ellipse cx="400" cy="400" rx="9.6" ry="4.8" class="b"/></g>
<g transform="translate(226.3 -82.4)rotate(430.0 400 400)"><ellipse cx="400" cy="400" rx="9.6" ry="4.8" /></g>
<g transform="translate(232.6 -62.3)rotate(435.0 400 400)"><ellipse cx="400" cy="400" rx="9.6" ry="4.8" class="w"/></g>
<g transform="translate(237.1 -41.8)rotate(440.0 400 400)"><ellipse cx="400" cy="400" rx="9.6" ry="4.8" /></g>
<g transform="translate(239.9 -21.0)rotate(445.0 400 400)"><ellipse cx="400" cy="400" rx="9.6" ry="4.8" class="b"/></g>
<g transform="translate(240.8 -0.0)rotate(450.0 400 400)"><ellipse cx="400" cy="400" rx="9.6" ry="4.8" /></g>
<g transform="translate(239.9 21.0)rotate(455.0 400 400)"><ellipse cx="400" cy="400" rx="9.6" ry="4.8" class="w"/></g>
<g transform="translate(237.1 41.8)rotate(460.0 400 400)"><ellipse cx="400" cy="400" rx="9.6" ry="4.8" /></g>
<g transform="translate(232.6 62.3)rotate(465.0 400 400)"><ellipse cx="400" cy="400" rx="9.6" ry="4.8" class="b"/></g>
<g transform="translate(226.3 82.4)rotate(470.0 400 400)"><ellipse cx="400" cy="400" rx="9.6" ry="4.8" /></g>
<g transform="translate(218.2 101.8)rotate(475.0 400 400)"><ellipse cx="400" cy="400" rx="9.6" ry="4.8" class="w"/></g>
<g transform="translate(208.5 120.4)rotate(480.0 400 400)"><ellipse cx="400" cy="400" rx="9.6" ry="4.8" /></g>
<g transform="translate(197.3 138.1)rotate(485.0 400 400)"><ellipse cx="400" cy="400" rx="9.6" ry="4.8" class="b"/></g>
<g transform="translate(184.5 154.8)rotate(490.0 400 400)"><ellipse cx="400" cy="400" rx="9.6" ry="4.8" /></g>
<g transform="translate(170.3 170.3)rotate(495.0 400 400)"><ellipse cx="400" cy="400" rx="9.6" ry="4.8" class="w"/></g>
<g transform="translate(154.8 184.5)rotate(500.0 400 400)"><ellipse cx="400" cy="400" rx="9.6" ry="4.8" /></g>
<g transform="translate(138.1 197.3)rotate(505.0 400 400)"><ellipse cx="400" cy="400" rx="9.6" ry="4.8" class="b"/></g>
<g transform="translate(120.4 208.5)rotate(510.0 400 400)"><ellipse cx="400" cy="400" rx="9.6" ry="4.8" /></g>
<g transform="translate(101.8 218.2)rotate(515.0 400 400)"><ellipse cx="400" cy="400" rx="9.6" ry="4.8" class="w"/></g>
<g transform="translate(82.4 226.3)rotate(520.0 400 400)"><ellipse cx="400" cy="400" rx="9.6" ry="4.8" /></g>
<g transform="translate(62.3 232.6)rotate(525.0 400 400)"><ellipse cx="400" cy="400" rx="9.6" ry="4.8" class="b"/></g>
<g transform="translate(41.8 237.1)rotate(530.0 400 400)"><ellipse cx="400" cy="400" rx="9.6" ry="4.8" /></g>
<g transform="translate(21.0 239.9)rotate(535.0 400 400)"><ellipse cx="400" cy="400" rx="9.6" ry="4.8" class="w"/></g>
<g transform="translate(0.0 240.8)rotate(540.0 400 400)"><ellipse cx="400" cy="400" rx="9.6" ry="4.8" /></g>
</svg>
