<?xml version="1.0" encoding="UTF-8"?>
<svg width="800" height="800" viewBox="0 0 800 800" xmlns="http://www.w3.org/2000/svg">
<!-- Created by Ian Parberry -->
<style>ellipse{fill:none;stroke-width:3}ellipse.b{cx:400;cy:400;stroke:none;fill:black;}ellipse.w{cx:400;cy:400;stroke:none;fill:white;}</style>
<rect width="800" height="800" style="fill:gray"/>
<g transform="translate(-20.2 230.3)rotate(185.0 400 400)"><ellipse cx="400" cy="400" rx="9.6" ry="4.8" class="b"/></g>
<g transform="translate(-40.1 227.7)rotate(190.0 400 400)"><ellipse cx="400" cy="400" rx="9.6" ry="4.8" /></g>
<g transform="translate(-59.8 223.3)rotate(195.0 400 400)"><ellipse cx="400" cy="400" rx="9.6" ry="4.8" class="w"/></g>
<g transform="translate(-79.1 217.3)rotate(200.0 400 400)"><ellipse cx="400" cy="400" rx="9.6" ry="4.8" /></g>
<g transform="translate(-97.7 209.5)rotate(205.0 400 400)"><ellipse cx="400" cy="400" rx="9.6" ry="4.8" class="b"/></g>
<g transform="translate(-115.6 200.2)rotate(210.0 400 400)"><ellipse cx="400" cy="400" rx="9.6" ry="4.8" /></g>
<g transform="translate(-132.6 189.4)rotate(215.0 400 400)"><ellipse cx="400" cy="400" rx="9.6" ry="4.8" class="w"/></g>
<g transform="translate(-148.6 177.1)rotate(220.0 400 400)"><ellipse cx="400" cy="400" rx="9.6" ry="4.8" /></g>
<g transform="translate(-163.5 163.5)rotate(225.0 400 400)"><ellipse cx="400" cy="400" rx="9.6" ry="4.8" class="b"/></g>
<g transform="translate(-177.1 148.6)rotate(230.0 400 400)"><ellipse cx="400" cy="400" rx="9.6" ry="4.8" /></g>
<g transform="translate(-189.4 132.6)rotate(235.0 400 400)"><ellipse cx="400" cy="400" rx="9.6" ry="4.8" class="w"/></g>
<g transform="translate(-200.2 115.6)rotate(240.0 400 400)"><ellipse cx="400" cy="400" rx="9.6" ry="4.8" /></g>
<g transform="translate(-209.5 97.7)rotate(245.0 400 400)"><ellipse cx="400" cy="400" rx="9.6" ry="4.8" class="b"/></g>
<g transform="translate(-217.3 79.1)rotate(250.0 400 400)"><ellipse cx="400" cy="400" rx="9.6" ry="4.8" /></g>
<g transform="translate(-223.3 59.8)rotate(255.0 400 400)"><ellipse cx="400" cy="400" rx="9.6" ry="4.8" class="w"/></g>
<g transform="translate(-227.7 40.1)rotate(260.0 400 400)"><ellipse cx="400" cy="400" rx="9.6" ry="4.8" /></g>
<g transform="translate(-230.3 20.2)rotate(265.0 400 400)"><ellipse cx="400" cy="400" rx="9.6" ry="4.8" class="b"/></g>
<g transform="translate(-231.2 0.0)rotate(270.0 400 400)"><ellipse cx="400" cy="400" rx="9.6" ry="4.8" /></g>
<g transform="translate(-230.3 -20.2)rotate(275.0 400 400)"><ellipse cx="400" cy="400" rx="9.6" ry="4.8" class="w"/></g>
<g transform="translate(-227.7 -40.1)rotate(280.0 400 400)"><ellipse cx="400" cy="400" rx="9.6" ry="4.8" /></g>
<g transform="translate(-223.3 -59.8)rotate(285.0 400 400)"><ellipse cx="400" cy="400" rx="9.6" ry="4.8" class="b"/></g>
<g transform="translate(-217.3 -79.1)rotate(290.0 400 400)"><ellipse cx="400" cy="400" rx="9.6" ry="4.8" /></g>
<g transform="translate(-209.5 -97.7)rotate(295.0 400 400)"><ellipse cx="400" cy="400" rx="9.6" ry="4.8" class="w"/></g>
<g transform="translate(-200.2 -115.6)rotate(300.0 400 400)"><ellipse cx="400" cy="400" rx="9.6" ry="4.8" /></g>
<g transform="translate(-189.4 -132.6)rotate(305.0 400 400)"><ellipse cx="400" cy="400" rx="9.6" ry="4.8" class="b"/></g>
<g transform="translate(-177.1 -148.6)rotate(310.0 400 400)"><ellipse cx="400" cy="400" rx="9.6" ry="4.8" /></g>
<g transform="translate(-163.5 -163.5)rotate(315.0 400 400)"><ellipse cx="400" cy="400" rx="9.6" ry="4.8" class="w"/></g>
<g transform="translate(-148.6 -177.1)rotate(320.0 400 400)"><ellipse cx="400" cy="400" rx="9.6" ry="4.8" /></g>
<g transform="translate(-132.6 -189.4)rotate(325.0 400 400)"><ellipse cx="400" cy="400" rx="9.6" ry="4.8" class="b"/></g>
<g transform="translate(-115.6 -200.2)rotate(330.0 400 400)"><ellipse cx="400" cy="400" rx="9.6" ry="4.8" /></g>
<g transform="translate(-97.7 -209.5)rotate(335.0 400 400)"><ellipse cx="400" cy="400" rx="9.6" ry="4.8" class="w"/></g>
<g transform="translate(-79.1 -217.3)rotate(340.0 400 400)"><ellipse cx="400" cy="400" rx="9.6" ry="4.8" /></g>
<g transform="translate(-59.8 -223.3)rotate(345.0 400 400)"><ellipse cx="400" cy="400" rx="9.6" ry="4.8" class="b"/></g>
<g transform="translate(-40.1 -227.7)rotate(350.0 400 400)"><ellipse cx="400" cy="400" rx="9.6" ry="4.8" /></g>
<g transform="translate(-20.2 -230.3)rotate(355.0 400 400)"><ellipse cx="400" cy="400" rx="9.6" ry="4.8" class="w"/></g>
<g transform="translate(-0.0 -231.2)rotate(360.0 400 400)"><ellipse cx="400" cy="400" rx="9.6" ry="4.8" /></g>
<g transform="translate(20.2 -230.3)rotate(365.0 400 400)"><ellipse cx="400" cy="400" rx="9.6" ry="4.8" class="w"/></g>
<g transform="translate(40.1 -227.7)rotate(370.0 400 400)"><ellipse cx="400" cy="400" rx="9.6" ry="4.8" /></g>
<g transform="translate(59.8 -223.3)rotate(375.0 400 400)"><ellipse cx="400" cy="400" rx="9.6" ry="4.8" class="b"/></g>
<g transform="translate(79.1 -217.3)rotate(380.0 400 400)"><ellipse cx="400" cy="400" rx="9.6" ry="4.8" /></g>
<g transform="translate(97.7 -209.5)rotate(385.0 400 400)"><ellipse cx="400" cy="400" rx="9.6" ry="4.8" class="w"/></g>
<g transform="translate(115.6 -200.2)rotate(390.0 400 400)"><ellipse cx="400" cy="400" rx="9.6" ry="4.8" /></g>
<g transform="translate(132.6 -189.4)rotate(395.0 400 400)"><ellipse cx="400" cy="400" rx="9.6" ry="4.8" class="b"/></g>
<g transform="translate(148.6 -177.1)rotate(400.0 400 400)"><ellipse cx="400" cy="400" rx="9.6" ry="4.8" /></g>
<g transform="translate(163.5 -163.5)rotate(405.0 400 400)"><ellipse cx="400" cy="400" rx="9.6" ry="4.8" class="w"/></g>
<g transform="translate(177.1 -148.6)rotate(410.0 400 400)"><ellipse cx="400" cy="400" rx="9.6" ry="4.8" /></g>
<g transform="translate(189.4 -132.6)rotate(415.0 400 400)"><ellipse cx="400" cy="400" rx="9.6" ry="4.8" class="b"/></g>
<g transform="translate(200.2 -115.6)rotate(420.0 400 400)"><ellipse cx="400" cy="400" rx="9.6" ry="4.8" /></g>
<g transform="translate(209.5 -97.7)rotate(425.0 400 400)"><ellipse cx="400" cy="400" rx="9.6" ry="4.8" class="w"/></g>
<g transform="translate(217.3 -79.1)rotate(430.0 400 400)"><ellipse cx="400" cy="400" rx="9.6" ry="4.8" /></g>
<g transform="translate(223.3 -59.8)rotate(435.0 400 400)"><ellipse cx="400" cy="400" rx="9.6" ry="4.8" class="b"/></g>
<g transform="translate(227.7 -40.1)rotate(440.0 400 400)"><ellipse cx="400" cy="400" rx="9.6" ry="4.8" /></g>
<g transform="translate(230.3 -20.2)rotate(445.0 400 400)"><ellipse cx="400" cy="400" rx="9.6" ry="4.8" class="w"/></g>
<g transform="translate(231.2 -0.0)rotate(450.0 400 400)"><ellipse cx="400" cy="400" rx="9.6" ry="4.8" /></g>
<g transform="translate(230.3 20.2)rotate(455.0 400 400)"><ellipse cx="400" cy="400" rx="9.6" ry="4.8" class="b"/></g>
<g transform="translate(227.7 40.1)rotate(460.0 400 400)"><ellipse cx="400" cy="400" rx="9.6" ry="4.8" /></g>
<g transform="translate(223.3 59.8)rotate(465.0 400 400)"><ellipse cx="400" cy="400" rx="9.6" ry="4.8" class="w"/></g>
<g transform="translate(217.3 79.1)rotate(470.0 400 400)"><ellipse cx="400" cy="400" rx="9.6" ry="4.8" /></g>
<g transform="translate(209.5 97.7)rotate(475.0 400 400)"><ellipse cx="400" cy="400" rx="9.6" ry="4.8" class="b"/></g>
<g transform="translate(200.2 115.6)rotate(480.0 400 400)"><ellipse cx="400" cy="400" rx="9.6" ry="4.8" /></g>
<g transform="translate(189.4 132.6)rotate(485.0 400 400)"><ellipse cx="400" cy="400" rx="9.6" ry="4.8" class="w"/></g>
<g transform="translate(177.1 148.6)rotate(490.0 400 400)"><ellipse cx="400" cy="400" rx="9.6" ry="4.8" /></g>
<g transform="translate(163.5 163.5)rotate(495.0 400 400)"><ellipse cx="400" cy="400" rx="9.6" ry="4.8" class="b"/></g>
<g transform="translate(148.6 177.1)rotate(500.0 400 400)"><ellipse cx="400" cy="400" rx="9.6" ry="4.8" /></g>
<g transform="translate(132.6 189.4)rotate(505.0 400 400)"><ellipse cx="400" cy="400" rx="9.6" ry="4.8" class="w"/></g>
<g transform="translate(115.6 200.2)rotate(510.0 400 400)"><ellipse cx="400" cy="400" rx="9.6" ry="4.8" /></g>
<g transform="translate(97.7 209.5)rotate(515.0 400 400)"><ellipse cx="400" cy="400" rx="9.6" ry="4.8" class="b"/></g>
<g transform="translate(79.1 217.3)rotate(520.0 400 400)"><ellipse cx="400" cy="400" rx="9.6" ry="4.8" /></g>
<g transform="translate(59.8 223.3)rotate(525.0 400 400)"><ellipse cx="400" cy="400" rx="9.6" ry="4.8" class="w"/></g>
<g transform="translate(40.1 227.7)rotate(530.0 400 400)"><ellipse cx="400" cy="400" rx="9.6" ry="4.8" /></g>
<g transform="translate(20.2 230.3)rotate(535.0 400 400)"><ellipse cx="400" cy="400" rx="9.6" ry="4.8" class="b"/></g>
<g transform="translate(0.0 231.2)rotate(540.0 400 400)"><ellipse cx="400" cy="400" rx="9.6" ry="4.8" /></g>
</svg>
